%FSTAX43Y43*%
%MOMM*%
%SFA1B1*%

%IPPOS*%
%ADD19C,0.253999*%
%ADD24C,0.100000*%
%ADD37C,0.250000*%
%ADD38C,0.599999*%
%ADD39C,0.178000*%
%ADD40C,0.200000*%
%ADD41C,0.150000*%
%ADD42C,0.152000*%
%LNopengrab_ctrl-1*%
%LPD*%
G54D19*
X010104Y0058199D02*
D01*
X010104Y0058209*
X0101039Y0058219*
X0101037Y0058229*
X0101035Y0058238*
X0101032Y0058248*
X0101028Y0058257*
X0101024Y0058266*
X0101019Y0058274*
X0101014Y0058282*
X0101008Y005829*
X0101001Y0058297*
X0100994Y0058304*
X0100986Y0058311*
X0100978Y0058316*
X010097Y0058322*
X0100961Y0058326*
X0100952Y005833*
X0100943Y0058334*
X0100934Y0058336*
X0100924Y0058338*
X0100914Y005834*
X0100904Y005834*
X0100895*
X0100885Y005834*
X0100875Y0058338*
X0100865Y0058336*
X0100856Y0058334*
X0100847Y005833*
X0100838Y0058326*
X0100829Y0058322*
X0100821Y0058316*
X0100813Y0058311*
X0100805Y0058304*
X0100798Y0058297*
X0100791Y005829*
X0100785Y0058282*
X010078Y0058274*
X0100775Y0058266*
X0100771Y0058257*
X0100767Y0058248*
X0100764Y0058238*
X0100762Y0058229*
X010076Y0058219*
X0100759Y0058209*
X0100758Y0058199*
X0100759Y005819*
X010076Y005818*
X0100762Y005817*
X0100764Y0058161*
X0100767Y0058151*
X0100771Y0058142*
X0100775Y0058133*
X010078Y0058125*
X0100785Y0058117*
X0100791Y0058109*
X0100798Y0058102*
X0100805Y0058095*
X0100813Y0058088*
X0100821Y0058083*
X0100829Y0058077*
X0100838Y0058073*
X0100847Y0058069*
X0100856Y0058065*
X0100865Y0058063*
X0100875Y0058061*
X0100885Y0058059*
X0100895Y0058059*
X0100904*
X0100914Y0058059*
X0100924Y0058061*
X0100934Y0058063*
X0100943Y0058065*
X0100952Y0058069*
X0100961Y0058073*
X010097Y0058077*
X0100978Y0058083*
X0100986Y0058088*
X0100994Y0058095*
X0101001Y0058102*
X0101008Y0058109*
X0101014Y0058117*
X0101019Y0058125*
X0101024Y0058133*
X0101028Y0058142*
X0101032Y0058151*
X0101035Y0058161*
X0101037Y005817*
X0101039Y005818*
X010104Y005819*
X010104Y0058199*
G54D24*
X0120557Y0069608D02*
Y0072308D01*
X0121757Y0069608D02*
Y0072308D01*
X0120557Y0069683D02*
X0121757D01*
X0120557Y0072308D02*
X0121757D01*
X0120557Y0069583D02*
X0121757D01*
X0120557Y0069783D02*
X0121757D01*
X0119033Y0072308D02*
X0120233D01*
X0119033Y0069858D02*
X0120233D01*
Y0072308*
X0119033Y0069858D02*
Y0072308D01*
X0105882Y007852D02*
Y007972D01*
X0103432Y007852D02*
Y007972D01*
Y007852D02*
X0105882D01*
X0103432Y007972D02*
X0105882D01*
X0110424Y0081174D02*
X0112374D01*
X0110424Y0085124D02*
X0112374D01*
Y0081174D02*
Y0085124D01*
X0110424Y0081174D02*
Y0085124D01*
X0109Y0075345D02*
Y0076545D01*
X011145Y0075345D02*
Y0076545D01*
X0109D02*
X011145D01*
X0109Y0075345D02*
X011145D01*
X0121065Y0066582D02*
X0122265D01*
X0121065Y0069032D02*
X0122265D01*
X0121065Y0066582D02*
Y0069032D01*
X0122265Y0066582D02*
Y0069032D01*
X0120565Y0065496D02*
X0121765D01*
X0120565Y0063046D02*
X0121765D01*
Y0065496*
X0120565Y0063046D02*
Y0065496D01*
X0119541Y0060613D02*
Y0061813D01*
X0121991Y0060613D02*
Y0061813D01*
X0119541D02*
X0121991D01*
X0119541Y0060613D02*
X0121991D01*
X0118906Y0057311D02*
X0120106D01*
X0118906Y0059761D02*
X0120106D01*
X0118906Y0057311D02*
Y0059761D01*
X0120106Y0057311D02*
Y0059761D01*
X0110785Y0057692D02*
Y0058892D01*
X0113235Y0057692D02*
Y0058892D01*
X0110785D02*
X0113235D01*
X0110785Y0057692D02*
X0113235D01*
X0116042D02*
Y0058892D01*
X0113592Y0057692D02*
Y0058892D01*
Y0057692D02*
X0116042D01*
X0113592Y0058892D02*
X0116042D01*
X0120938Y0056606D02*
X0122138D01*
X0120938Y0054156D02*
X0122138D01*
Y0056606*
X0120938Y0054156D02*
Y0056606D01*
X0116747Y0055533D02*
Y0056733D01*
X0119197Y0055533D02*
Y0056733D01*
X0116747D02*
X0119197D01*
X0116747Y0055533D02*
X0119197D01*
X0106263Y0067979D02*
Y0069179D01*
X0103813Y0067979D02*
Y0069179D01*
Y0067979D02*
X0106263D01*
X0103813Y0069179D02*
X0106263D01*
X0101634Y0068417D02*
X0102834D01*
X0101634Y0065967D02*
X0102834D01*
Y0068417*
X0101634Y0065967D02*
Y0068417D01*
X0107984Y0063718D02*
X0109184D01*
X0107984Y0061268D02*
X0109184D01*
Y0063718*
X0107984Y0061268D02*
Y0063718D01*
X0107607Y0057114D02*
X0108807D01*
X0107607Y0054664D02*
X0108807D01*
Y0057114*
X0107607Y0054664D02*
Y0057114D01*
X0105899Y0054699D02*
X0107099D01*
X0105899Y005715D02*
X0107099D01*
X0105899Y0054699D02*
Y005715D01*
X0107099Y0054699D02*
Y005715D01*
X01051Y0052124D02*
Y0053324D01*
X010265Y0052124D02*
Y0053324D01*
Y0052124D02*
X01051D01*
X010265Y0053324D02*
X01051D01*
X0112359Y0071408D02*
Y0072608D01*
X0109909Y0071408D02*
Y0072608D01*
Y0071408D02*
X0112359D01*
X0109909Y0072608D02*
X0112359D01*
X0099999Y0089999D02*
X0124999D01*
Y0049999D02*
Y0089999D01*
X0099999Y0049999D02*
X0124999D01*
X0099999D02*
Y0089999D01*
G54D37*
X0111559Y0061558D02*
D01*
X0111559Y0061567*
X0111558Y0061576*
X0111557Y0061584*
X0111555Y0061593*
X0111552Y0061601*
X0111549Y0061609*
X0111545Y0061617*
X0111541Y0061625*
X0111536Y0061632*
X011153Y0061639*
X0111524Y0061645*
X0111518Y0061651*
X0111511Y0061657*
X0111504Y0061662*
X0111497Y0061667*
X0111489Y0061671*
X0111481Y0061674*
X0111473Y0061677*
X0111465Y006168*
X0111456Y0061682*
X0111448Y0061683*
X0111439Y0061683*
X011143*
X0111421Y0061683*
X0111413Y0061682*
X0111404Y006168*
X0111396Y0061677*
X0111388Y0061674*
X011138Y0061671*
X0111372Y0061667*
X0111365Y0061662*
X0111358Y0061657*
X0111351Y0061651*
X0111345Y0061645*
X0111339Y0061639*
X0111333Y0061632*
X0111328Y0061625*
X0111324Y0061617*
X011132Y0061609*
X0111317Y0061601*
X0111314Y0061593*
X0111312Y0061584*
X0111311Y0061576*
X011131Y0061567*
X0111309Y0061558*
X011131Y006155*
X0111311Y0061541*
X0111312Y0061532*
X0111314Y0061524*
X0111317Y0061516*
X011132Y0061508*
X0111324Y00615*
X0111328Y0061492*
X0111333Y0061485*
X0111339Y0061478*
X0111345Y0061472*
X0111351Y0061466*
X0111358Y006146*
X0111365Y0061455*
X0111372Y006145*
X011138Y0061446*
X0111388Y0061443*
X0111396Y006144*
X0111404Y0061437*
X0111413Y0061435*
X0111421Y0061434*
X011143Y0061434*
X0111439*
X0111448Y0061434*
X0111456Y0061435*
X0111465Y0061437*
X0111473Y006144*
X0111481Y0061443*
X0111489Y0061446*
X0111497Y006145*
X0111504Y0061455*
X0111511Y006146*
X0111518Y0061466*
X0111524Y0061472*
X011153Y0061478*
X0111536Y0061485*
X0111541Y0061492*
X0111545Y00615*
X0111549Y0061508*
X0111552Y0061516*
X0111555Y0061524*
X0111557Y0061532*
X0111558Y0061541*
X0111559Y006155*
X0111559Y0061558*
X0102017Y0071005D02*
D01*
X0102017Y0071014*
X0102016Y0071023*
X0102015Y0071031*
X0102013Y007104*
X010201Y0071048*
X0102007Y0071056*
X0102003Y0071064*
X0101998Y0071072*
X0101994Y0071079*
X0101988Y0071086*
X0101982Y0071092*
X0101976Y0071098*
X0101969Y0071104*
X0101962Y0071109*
X0101955Y0071114*
X0101947Y0071118*
X0101939Y0071121*
X0101931Y0071124*
X0101923Y0071127*
X0101914Y0071129*
X0101906Y007113*
X0101897Y007113*
X0101888*
X0101879Y007113*
X0101871Y0071129*
X0101862Y0071127*
X0101854Y0071124*
X0101846Y0071121*
X0101838Y0071118*
X010183Y0071114*
X0101823Y0071109*
X0101816Y0071104*
X0101809Y0071098*
X0101803Y0071092*
X0101797Y0071086*
X0101791Y0071079*
X0101786Y0071072*
X0101782Y0071064*
X0101778Y0071056*
X0101775Y0071048*
X0101772Y007104*
X010177Y0071031*
X0101769Y0071023*
X0101768Y0071014*
X0101767Y0071005*
X0101768Y0070997*
X0101769Y0070988*
X010177Y0070979*
X0101772Y0070971*
X0101775Y0070963*
X0101778Y0070955*
X0101782Y0070947*
X0101786Y0070939*
X0101791Y0070932*
X0101797Y0070925*
X0101803Y0070919*
X0101809Y0070913*
X0101816Y0070907*
X0101823Y0070902*
X010183Y0070897*
X0101838Y0070893*
X0101846Y007089*
X0101854Y0070887*
X0101862Y0070884*
X0101871Y0070882*
X0101879Y0070881*
X0101888Y0070881*
X0101897*
X0101906Y0070881*
X0101914Y0070882*
X0101923Y0070884*
X0101931Y0070887*
X0101939Y007089*
X0101947Y0070893*
X0101955Y0070897*
X0101962Y0070902*
X0101969Y0070907*
X0101976Y0070913*
X0101982Y0070919*
X0101988Y0070925*
X0101994Y0070932*
X0101998Y0070939*
X0102003Y0070947*
X0102007Y0070955*
X010201Y0070963*
X0102013Y0070971*
X0102015Y0070979*
X0102016Y0070988*
X0102017Y0070997*
X0102017Y0071005*
G54D38*
X0113384Y0063808D02*
D01*
X0113384Y0063829*
X0113382Y006385*
X0113378Y0063871*
X0113373Y0063891*
X0113366Y0063911*
X0113359Y0063931*
X0113349Y0063949*
X0113339Y0063967*
X0113327Y0063985*
X0113314Y0064001*
X01133Y0064017*
X0113285Y0064031*
X0113269Y0064045*
X0113252Y0064057*
X0113234Y0064068*
X0113216Y0064078*
X0113197Y0064087*
X0113177Y0064094*
X0113157Y00641*
X0113137Y0064104*
X0113116Y0064107*
X0113095Y0064108*
X0113074*
X0113053Y0064107*
X0113032Y0064104*
X0113012Y00641*
X0112992Y0064094*
X0112972Y0064087*
X0112953Y0064078*
X0112934Y0064068*
X0112917Y0064057*
X01129Y0064045*
X0112884Y0064031*
X0112869Y0064017*
X0112855Y0064001*
X0112842Y0063985*
X011283Y0063967*
X011282Y0063949*
X011281Y0063931*
X0112803Y0063911*
X0112796Y0063891*
X0112791Y0063871*
X0112787Y006385*
X0112785Y0063829*
X0112784Y0063808*
X0112785Y0063788*
X0112787Y0063767*
X0112791Y0063746*
X0112796Y0063726*
X0112803Y0063706*
X011281Y0063686*
X011282Y0063668*
X011283Y006365*
X0112842Y0063632*
X0112855Y0063616*
X0112869Y00636*
X0112884Y0063586*
X01129Y0063572*
X0112917Y006356*
X0112934Y0063549*
X0112953Y0063539*
X0112972Y006353*
X0112992Y0063523*
X0113012Y0063517*
X0113032Y0063513*
X0113053Y006351*
X0113074Y0063509*
X0113095*
X0113116Y006351*
X0113137Y0063513*
X0113157Y0063517*
X0113177Y0063523*
X0113197Y006353*
X0113216Y0063539*
X0113234Y0063549*
X0113252Y006356*
X0113269Y0063572*
X0113285Y0063586*
X01133Y00636*
X0113314Y0063616*
X0113327Y0063632*
X0113339Y006365*
X0113349Y0063668*
X0113359Y0063686*
X0113366Y0063706*
X0113373Y0063726*
X0113378Y0063746*
X0113382Y0063767*
X0113384Y0063788*
X0113384Y0063808*
X0102947Y0073005D02*
D01*
X0102947Y0073026*
X0102945Y0073047*
X0102941Y0073068*
X0102936Y0073088*
X0102929Y0073108*
X0102922Y0073127*
X0102912Y0073146*
X0102902Y0073164*
X010289Y0073182*
X0102877Y0073198*
X0102863Y0073214*
X0102848Y0073228*
X0102832Y0073242*
X0102815Y0073254*
X0102797Y0073265*
X0102779Y0073275*
X010276Y0073284*
X010274Y0073291*
X010272Y0073297*
X01027Y0073301*
X0102679Y0073304*
X0102658Y0073305*
X0102637*
X0102616Y0073304*
X0102595Y0073301*
X0102575Y0073297*
X0102555Y0073291*
X0102535Y0073284*
X0102516Y0073275*
X0102497Y0073265*
X010248Y0073254*
X0102463Y0073242*
X0102447Y0073228*
X0102432Y0073214*
X0102418Y0073198*
X0102405Y0073182*
X0102393Y0073164*
X0102383Y0073146*
X0102373Y0073127*
X0102366Y0073108*
X0102359Y0073088*
X0102354Y0073068*
X010235Y0073047*
X0102348Y0073026*
X0102347Y0073005*
X0102348Y0072985*
X010235Y0072964*
X0102354Y0072943*
X0102359Y0072923*
X0102366Y0072903*
X0102373Y0072883*
X0102383Y0072865*
X0102393Y0072847*
X0102405Y0072829*
X0102418Y0072813*
X0102432Y0072797*
X0102447Y0072783*
X0102463Y0072769*
X010248Y0072757*
X0102497Y0072746*
X0102516Y0072736*
X0102535Y0072727*
X0102555Y007272*
X0102575Y0072714*
X0102595Y007271*
X0102616Y0072707*
X0102637Y0072706*
X0102658*
X0102679Y0072707*
X01027Y007271*
X010272Y0072714*
X010274Y007272*
X010276Y0072727*
X0102779Y0072736*
X0102797Y0072746*
X0102815Y0072757*
X0102832Y0072769*
X0102848Y0072783*
X0102863Y0072797*
X0102877Y0072813*
X010289Y0072829*
X0102902Y0072847*
X0102912Y0072865*
X0102922Y0072883*
X0102929Y0072903*
X0102936Y0072923*
X0102941Y0072943*
X0102945Y0072964*
X0102947Y0072985*
X0102947Y0073005*
G54D39*
X0122899Y0071599D02*
X0123099D01*
X0122699Y0071999D02*
X0123299D01*
X0122499Y0072399D02*
X0123499D01*
X012301D02*
Y0073081D01*
X0115499Y0075899D02*
X0115899D01*
X0116499Y0076499*
X0120099Y007568D02*
Y0076099D01*
X0119699Y0076499D02*
X0120099Y0076099D01*
X0116499Y0076499D02*
X0119699D01*
X0115499Y0074399D02*
X0116399D01*
G54D40*
X0104864Y0057324D02*
Y0064274D01*
X0101464Y0057324D02*
Y0064274D01*
Y0057324D02*
X0104864D01*
X0101464Y0064274D02*
X0104864D01*
X0102323Y0054673D02*
Y0056813D01*
X0105463Y0054673D02*
Y0056813D01*
X0102323D02*
X0105463D01*
X0102323Y0054673D02*
X0105463D01*
X0108569Y0080129D02*
Y0082269D01*
X0105429Y0080129D02*
Y0082269D01*
Y0080129D02*
X0108569D01*
X0105429Y0082269D02*
X0108569D01*
X0116459Y007568D02*
X0124079D01*
X0116459Y007314D02*
Y007568D01*
Y007314D02*
X0124079D01*
Y007568*
X0106149Y0086729D02*
X0113769D01*
Y0089269*
X0106149D02*
X0113769D01*
X0106149Y0086729D02*
Y0089269D01*
X0112084Y0062808D02*
X0117784D01*
X0112084Y0068508D02*
X0117784D01*
X0112084Y0062808D02*
Y0068508D01*
X0117784Y0062808D02*
Y0068508D01*
X0111037Y0053821D02*
X0111237Y0053671D01*
X0115837*
X0111237Y0057071D02*
X0115837D01*
X0111037Y0056921D02*
X0111237Y0057071D01*
X0115837D02*
X0116037Y0056921D01*
X0115837Y0053671D02*
X0116037Y0053821D01*
X0118849Y0050729D02*
Y0053269D01*
X0106149Y0050729D02*
X0118849D01*
X0106149Y0053269D02*
X0118849D01*
X0106149Y0050729D02*
Y0053269D01*
X0102147Y0072505D02*
X0107147D01*
X0102147Y0074305D02*
X0107147D01*
X0102147Y0072505D02*
Y0074305D01*
X0107147Y0072505D02*
Y0074305D01*
G54D41*
X0124499Y0083899D02*
Y0089199D01*
X0114499D02*
X0124499D01*
X0114499Y0087899D02*
X0124499D01*
X0115999Y0083899D02*
X0124499D01*
X0114499Y0085149D02*
Y0089199D01*
Y0078949D02*
Y0082999D01*
X0115999Y0077699D02*
X0124499D01*
X0114499Y0081699D02*
X0124499D01*
X0114499Y0082999D02*
X0124499D01*
Y0077699D02*
Y0082999D01*
G54D42*
X0113399Y0076515D02*
X0114076D01*
X0113738*
Y0075499*
X0114415Y0076176D02*
X0115092Y0075499D01*
X0114753Y0075838*
X0115092Y0076176*
X0114415Y0075499*
X0113399Y0073999D02*
Y0075015D01*
X0113907*
X0114076Y0074845*
Y0074507*
X0113907Y0074338*
X0113399*
X0113738D02*
X0114076Y0073999D01*
X0114415Y0074676D02*
X0115092Y0073999D01*
X0114753Y0074338*
X0115092Y0074676*
X0114415Y0073999*
X0106405Y0062399D02*
X0105262D01*
Y006297*
X0105453Y0063161*
X0105834*
X0106024Y006297*
Y0062399*
X0106405Y0064303D02*
Y0063542D01*
X0105643Y0064303*
X0105453*
X0105262Y0064113*
Y0063732*
X0105453Y0063542*
X0101899Y0054999D02*
X0100756D01*
Y005557*
X0100947Y0055761*
X0101328*
X0101518Y005557*
Y0054999*
X0100756Y0056903D02*
X0100947Y0056523D01*
X0101328Y0056142*
X0101709*
X0101899Y0056332*
Y0056713*
X0101709Y0056903*
X0101518*
X0101328Y0056713*
Y0056142*
X0106199Y0082799D02*
Y0083942D01*
X010677*
X0106961Y0083751*
Y008337*
X010677Y008318*
X0106199*
X0107342Y0083942D02*
X0108103D01*
Y0083751*
X0107342Y0082989*
Y0082799*
X0113899Y0083899D02*
X0112756D01*
Y008447*
X0112947Y0084661*
X0113328*
X0113518Y008447*
Y0083899*
X0112756Y0085803D02*
Y0085042D01*
X0113328*
X0113137Y0085423*
Y0085613*
X0113328Y0085803*
X0113709*
X0113899Y0085613*
Y0085232*
X0113709Y0085042*
X0113899Y0078699D02*
X0112756D01*
Y007927*
X0112947Y0079461*
X0113328*
X0113518Y007927*
Y0078699*
X0112756Y0080603D02*
X0112947Y0080223D01*
X0113328Y0079842*
X0113709*
X0113899Y0080032*
Y0080413*
X0113709Y0080603*
X0113518*
X0113328Y0080413*
Y0079842*
X0112956Y0054699D02*
X0113147D01*
X0113528Y005508*
X0113147Y0055461*
X0112956*
X0113528Y005508D02*
X0114099D01*
Y0055842D02*
Y0056223D01*
Y0056032*
X0112956*
X0113147Y0055842*
X0123299Y0063099D02*
X0122156D01*
Y006367*
X0122347Y0063861*
X0122728*
X0122918Y006367*
Y0063099*
Y006348D02*
X0123299Y0063861D01*
Y0064242D02*
Y0064623D01*
Y0064432*
X0122156*
X0122347Y0064242*
X0122156Y0065956D02*
Y0065194D01*
X0122728*
X0122537Y0065575*
Y0065765*
X0122728Y0065956*
X0123109*
X0123299Y0065765*
Y0065384*
X0123109Y0065194*
X0117199Y0053999D02*
Y0055142D01*
X011777*
X0117961Y0054951*
Y005457*
X011777Y005438*
X0117199*
X011758D02*
X0117961Y0053999D01*
X0118342D02*
X0118723D01*
X0118532*
Y0055142*
X0118342Y0054951*
X0119865Y0053999D02*
Y0055142D01*
X0119294Y005457*
X0120056*
X0107099Y0057499D02*
X0105956D01*
Y005807*
X0106147Y0058261*
X0106528*
X0106718Y005807*
Y0057499*
Y005788D02*
X0107099Y0058261D01*
Y0058642D02*
Y0059023D01*
Y0058832*
X0105956*
X0106147Y0058642*
Y0059594D02*
X0105956Y0059784D01*
Y0060165*
X0106147Y0060356*
X0106337*
X0106528Y0060165*
Y0059975*
Y0060165*
X0106718Y0060356*
X0106909*
X0107099Y0060165*
Y0059784*
X0106909Y0059594*
X0102199Y0051199D02*
X0101056D01*
Y005177*
X0101247Y0051961*
X0101628*
X0101818Y005177*
Y0051199*
Y005158D02*
X0102199Y0051961D01*
Y0052342D02*
Y0052723D01*
Y0052532*
X0101056*
X0101247Y0052342*
X0102199Y0054056D02*
Y0053294D01*
X0101437Y0054056*
X0101247*
X0101056Y0053865*
Y0053484*
X0101247Y0053294*
X0108799Y0057599D02*
X0107656D01*
Y005817*
X0107847Y0058361*
X0108228*
X0108418Y005817*
Y0057599*
Y005798D02*
X0108799Y0058361D01*
Y0058742D02*
Y0059123D01*
Y0058932*
X0107656*
X0107847Y0058742*
X0108799Y0059694D02*
Y0060075D01*
Y0059884*
X0107656*
X0107847Y0059694*
X0104699Y0080199D02*
X0103556D01*
Y008077*
X0103747Y0080961*
X0104128*
X0104318Y008077*
Y0080199*
Y008058D02*
X0104699Y0080961D01*
Y0081342D02*
Y0081723D01*
Y0081532*
X0103556*
X0103747Y0081342*
Y0082294D02*
X0103556Y0082484D01*
Y0082865*
X0103747Y0083056*
X0104509*
X0104699Y0082865*
Y0082484*
X0104509Y0082294*
X0103747*
X0109299Y0076999D02*
Y0078142D01*
X010987*
X0110061Y0077951*
Y007757*
X010987Y007738*
X0109299*
X010968D02*
X0110061Y0076999D01*
X0110442Y0077189D02*
X0110632Y0076999D01*
X0111013*
X0111203Y0077189*
Y0077951*
X0111013Y0078142*
X0110632*
X0110442Y0077951*
Y0077761*
X0110632Y007757*
X0111203*
X0103299Y0066099D02*
Y0067242D01*
X010387*
X0104061Y0067051*
Y006667*
X010387Y006648*
X0103299*
X010368D02*
X0104061Y0066099D01*
X0104442Y0067242D02*
X0105203D01*
Y0067051*
X0104442Y0066289*
Y0066099*
X0123799Y0053699D02*
X0122656D01*
Y005427*
X0122847Y0054461*
X0123228*
X0123418Y005427*
Y0053699*
Y005408D02*
X0123799Y0054461D01*
X0122656Y0055603D02*
X0122847Y0055223D01*
X0123228Y0054842*
X0123609*
X0123799Y0055032*
Y0055413*
X0123609Y0055603*
X0123418*
X0123228Y0055413*
Y0054842*
X0119299Y0051299D02*
Y0052442D01*
X011987*
X0120061Y0052251*
Y005187*
X011987Y005168*
X0119299*
X0121013Y0051299D02*
Y0052442D01*
X0120442Y005187*
X0121203*
X0103699Y0087699D02*
Y0088842D01*
X010427*
X0104461Y0088651*
Y008827*
X010427Y008808*
X0103699*
X0104842Y0088651D02*
X0105032Y0088842D01*
X0105413*
X0105603Y0088651*
Y0088461*
X0105413Y008827*
X0105223*
X0105413*
X0105603Y008808*
Y0087889*
X0105413Y0087699*
X0105032*
X0104842Y0087889*
X0122499Y00762D02*
Y0077343D01*
X012307*
X0123261Y0077151*
Y007677*
X012307Y0076581*
X0122499*
X0123642Y00762D02*
X0124023D01*
X0123832*
Y0077343*
X0123642Y0077151*
X0122856Y0060761D02*
Y0059999D01*
X0123428*
Y006038*
Y0059999*
X0123999*
X0122856Y0061142D02*
X0123999D01*
Y0061713*
X0123809Y0061903*
X0123618*
X0123428Y0061713*
Y0061142*
Y0061713*
X0123237Y0061903*
X0123047*
X0122856Y0061713*
Y0061142*
X0123999Y0062284D02*
Y0062665D01*
Y0062475*
X0122856*
X0123047Y0062284*
X0108956Y0084361D02*
Y0083599D01*
X0109528*
Y008398*
Y0083599*
X0110099*
Y0084742D02*
Y0085123D01*
Y0084932*
X0108956*
X0109147Y0084742*
X0107856Y0071899D02*
X0108999D01*
Y007247*
X0108809Y0072661*
X0108047*
X0107856Y007247*
Y0071899*
Y0073042D02*
X0108999D01*
Y0073613*
X0108809Y0073803*
X0108047*
X0107856Y0073613*
Y0073042*
X0108999Y0074756D02*
X0107856D01*
X0108428Y0074184*
Y0074946*
X0113699Y0066142D02*
Y0064999D01*
X011427*
X0114461Y0065189*
Y0065951*
X011427Y0066142*
X0113699*
X0114842D02*
Y0064999D01*
X0115413*
X0115603Y0065189*
Y0065951*
X0115413Y0066142*
X0114842*
X0115984Y0065951D02*
X0116175Y0066142D01*
X0116556*
X0116746Y0065951*
Y0065761*
X0116556Y006557*
X0116365*
X0116556*
X0116746Y006538*
Y0065189*
X0116556Y0064999*
X0116175*
X0115984Y0065189*
X0114376Y0060145D02*
X0114207Y0060315D01*
X0113868*
X0113699Y0060145*
Y0059468*
X0113868Y0059299*
X0114207*
X0114376Y0059468*
X0114715Y0059299D02*
X0115053D01*
X0114884*
Y0060315*
X0114715Y0060145*
X0115561Y0060315D02*
X0116238D01*
Y0060145*
X0115561Y0059468*
Y0059299*
X0107361Y0068951D02*
X010717Y0069142D01*
X0106789*
X0106599Y0068951*
Y0068189*
X0106789Y0067999*
X010717*
X0107361Y0068189*
X0107742Y0067999D02*
X0108123D01*
X0107932*
Y0069142*
X0107742Y0068951*
X0109456Y0069142D02*
X0109075Y0068951D01*
X0108694Y006857*
Y0068189*
X0108884Y0067999*
X0109265*
X0109456Y0068189*
Y006838*
X0109265Y006857*
X0108694*
X0111276Y0060145D02*
X0111107Y0060315D01*
X0110768*
X0110599Y0060145*
Y0059468*
X0110768Y0059299*
X0111107*
X0111276Y0059468*
X0111615Y0059299D02*
X0111953D01*
X0111784*
Y0060315*
X0111615Y0060145*
X0113138Y0060315D02*
X0112461D01*
Y0059807*
X01128Y0059976*
X0112969*
X0113138Y0059807*
Y0059468*
X0112969Y0059299*
X011263*
X0112461Y0059468*
X0122847Y0067361D02*
X0122656Y006717D01*
Y0066789*
X0122847Y0066599*
X0123609*
X0123799Y0066789*
Y006717*
X0123609Y0067361*
X0123799Y0067742D02*
Y0068123D01*
Y0067932*
X0122656*
X0122847Y0067742*
X0123799Y0069265D02*
X0122656D01*
X0123228Y0068694*
Y0069456*
X0108147Y0064861D02*
X0107956Y006467D01*
Y0064289*
X0108147Y0064099*
X0108909*
X0109099Y0064289*
Y006467*
X0108909Y0064861*
X0109099Y0065242D02*
Y0065623D01*
Y0065432*
X0107956*
X0108147Y0065242*
Y0066194D02*
X0107956Y0066384D01*
Y0066765*
X0108147Y0066956*
X0108337*
X0108528Y0066765*
Y0066575*
Y0066765*
X0108718Y0066956*
X0108909*
X0109099Y0066765*
Y0066384*
X0108909Y0066194*
X0110561Y0074051D02*
X011037Y0074242D01*
X0109989*
X0109799Y0074051*
Y0073289*
X0109989Y0073099*
X011037*
X0110561Y0073289*
X0110942Y0073099D02*
X0111323D01*
X0111132*
Y0074242*
X0110942Y0074051*
X0112656Y0073099D02*
X0111894D01*
X0112656Y0073861*
Y0074051*
X0112465Y0074242*
X0112084*
X0111894Y0074051*
X0117547Y0058161D02*
X0117356Y005797D01*
Y0057589*
X0117547Y0057399*
X0118309*
X0118499Y0057589*
Y005797*
X0118309Y0058161*
X0118499Y0058542D02*
Y0058923D01*
Y0058732*
X0117356*
X0117547Y0058542*
X0118499Y0059494D02*
Y0059875D01*
Y0059684*
X0117356*
X0117547Y0059494*
X0123047Y0057161D02*
X0122856Y005697D01*
Y0056589*
X0123047Y0056399*
X0123809*
X0123999Y0056589*
Y005697*
X0123809Y0057161*
X0123999Y0057542D02*
Y0057923D01*
Y0057732*
X0122856*
X0123047Y0057542*
Y0058494D02*
X0122856Y0058684D01*
Y0059065*
X0123047Y0059256*
X0123809*
X0123999Y0059065*
Y0058684*
X0123809Y0058494*
X0123047*
X0115599Y0071399D02*
Y0072542D01*
X011617*
X0116361Y0072351*
Y007197*
X011617Y007178*
X0115599*
X011598D02*
X0116361Y0071399D01*
X0116742D02*
X0117123D01*
X0116932*
Y0072542*
X0116742Y0072351*
X0118456Y0072542D02*
X0118075Y0072351D01*
X0117694Y007197*
Y0071589*
X0117884Y0071399*
X0118265*
X0118456Y0071589*
Y007178*
X0118265Y007197*
X0117694*
M02*