%FSTAX43Y43*%
%MOMM*%
%SFA1B1*%

%IPPOS*%
%ADD24C,0.100000*%
%ADD37C,0.250000*%
%ADD40C,0.200000*%
%ADD42C,0.152000*%
%LNopengrab_ctrl-1*%
%LPD*%
G54D24*
X0104194Y0072062D02*
X0106644D01*
X0104194Y0073262D02*
X0106644D01*
X0104194Y0072062D02*
Y0073262D01*
X0106644Y0072062D02*
Y0073262D01*
X0111546Y0069124D02*
X0113496D01*
X0111546Y0073074D02*
X0113496D01*
X0111546Y0069124D02*
Y0073074D01*
X0113496Y0069124D02*
Y0073074D01*
X0113724Y0073924D02*
X0115674D01*
X0113724Y0069974D02*
X0115674D01*
Y0073924*
X0113724Y0069974D02*
Y0073924D01*
X0118455Y0071662D02*
Y0072862D01*
X0116005Y0071662D02*
Y0072862D01*
X0118455*
X0116005Y0071662D02*
X0118455D01*
X0121899Y0070599D02*
X0123099D01*
X0121899Y0068149D02*
X0123099D01*
X0121899D02*
Y0070599D01*
X0123099Y0068149D02*
Y0070599D01*
X0099999Y0089999D02*
X0124999D01*
Y0049999D02*
Y0089999D01*
X0099999Y0049999D02*
X0124999D01*
X0099999D02*
Y0089999D01*
G54D37*
X0107793Y0068885D02*
D01*
X0107793Y0068894*
X0107792Y0068903*
X0107791Y0068911*
X0107789Y006892*
X0107786Y0068928*
X0107783Y0068936*
X0107779Y0068944*
X0107774Y0068952*
X010777Y0068959*
X0107764Y0068966*
X0107758Y0068972*
X0107752Y0068978*
X0107745Y0068984*
X0107738Y0068989*
X0107731Y0068994*
X0107723Y0068998*
X0107715Y0069001*
X0107707Y0069004*
X0107699Y0069007*
X010769Y0069009*
X0107682Y006901*
X0107673Y006901*
X0107664*
X0107655Y006901*
X0107647Y0069009*
X0107638Y0069007*
X010763Y0069004*
X0107622Y0069001*
X0107614Y0068998*
X0107606Y0068994*
X0107599Y0068989*
X0107592Y0068984*
X0107585Y0068978*
X0107579Y0068972*
X0107573Y0068966*
X0107567Y0068959*
X0107562Y0068952*
X0107558Y0068944*
X0107554Y0068936*
X0107551Y0068928*
X0107548Y006892*
X0107546Y0068911*
X0107545Y0068903*
X0107544Y0068894*
X0107543Y0068885*
X0107544Y0068877*
X0107545Y0068868*
X0107546Y006886*
X0107548Y0068851*
X0107551Y0068843*
X0107554Y0068835*
X0107558Y0068827*
X0107562Y0068819*
X0107567Y0068812*
X0107573Y0068805*
X0107579Y0068799*
X0107585Y0068793*
X0107592Y0068787*
X0107599Y0068782*
X0107606Y0068777*
X0107614Y0068773*
X0107622Y006877*
X010763Y0068767*
X0107638Y0068764*
X0107647Y0068762*
X0107655Y0068761*
X0107664Y0068761*
X0107673*
X0107682Y0068761*
X010769Y0068762*
X0107699Y0068764*
X0107707Y0068767*
X0107715Y006877*
X0107723Y0068773*
X0107731Y0068777*
X0107738Y0068782*
X0107745Y0068787*
X0107752Y0068793*
X0107758Y0068799*
X0107764Y0068805*
X010777Y0068812*
X0107774Y0068819*
X0107779Y0068827*
X0107783Y0068835*
X0107786Y0068843*
X0107789Y0068851*
X0107791Y006886*
X0107792Y0068868*
X0107793Y0068877*
X0107793Y0068885*
G54D40*
X0109118Y0069185D02*
Y0072185D01*
X0108618Y0069185D02*
Y0072185D01*
X0109118*
X0108618Y0069185D02*
X0109118D01*
G54D42*
X0122986Y0071297D02*
Y0072439D01*
X0122414*
X0122224Y0072249*
Y0071868*
X0122414Y0071678*
X0122986*
X0122605D02*
X0122224Y0071297D01*
X0121843Y0072249D02*
X0121653Y0072439D01*
X0121272*
X0121081Y0072249*
Y0072059*
X0121272Y0071868*
X0121081Y0071678*
Y0071487*
X0121272Y0071297*
X0121653*
X0121843Y0071487*
Y0071678*
X0121653Y0071868*
X0121843Y0072059*
Y0072249*
X0121653Y0071868D02*
X0121272D01*
X0118399Y0069899D02*
Y0071042D01*
X0117828*
X0117637Y0070851*
Y007047*
X0117828Y007028*
X0118399*
X0118018D02*
X0117637Y0069899D01*
X0116495Y0071042D02*
X0117256D01*
Y007047*
X0116875Y0070661*
X0116685*
X0116495Y007047*
Y0070089*
X0116685Y0069899*
X0117066*
X0117256Y0070089*
X0113499Y0068442D02*
Y0067299D01*
X0112737*
X0111595D02*
X0112356D01*
X0111595Y0068061*
Y0068251*
X0111785Y0068442*
X0112166*
X0112356Y0068251*
X0106299Y0070542D02*
Y0069399D01*
X0105728*
X0105537Y0069589*
Y0070351*
X0105728Y0070542*
X0106299*
X0105156D02*
Y0069399D01*
X0104585*
X0104395Y0069589*
Y0070351*
X0104585Y0070542*
X0105156*
X0103252Y0069399D02*
X0104014D01*
X0103252Y0070161*
Y0070351*
X0103442Y0070542*
X0103823*
X0104014Y0070351*
X0102937Y0072951D02*
X0103128Y0073142D01*
X0103509*
X0103699Y0072951*
Y0072189*
X0103509Y0071999*
X0103128*
X0102937Y0072189*
X0102556D02*
X0102366Y0071999D01*
X0101985*
X0101795Y0072189*
Y0072951*
X0101985Y0073142*
X0102366*
X0102556Y0072951*
Y0072761*
X0102366Y007257*
X0101795*
X011527Y0068158D02*
X0115461Y0067967D01*
Y0067586*
X011527Y0067396*
X0114508*
X0114318Y0067586*
Y0067967*
X0114508Y0068158*
X011527Y0068539D02*
X0115461Y0068729D01*
Y006911*
X011527Y00693*
X011508*
X0114889Y006911*
X0114699Y00693*
X0114508*
X0114318Y006911*
Y0068729*
X0114508Y0068539*
X0114699*
X0114889Y0068729*
X011508Y0068539*
X011527*
X0114889Y0068729D02*
Y006911D01*
M02*