%FSTAX43Y43*%
%MOMM*%
%SFA1B1*%

%IPPOS*%
%AMD10*
4,1,8,0.398780,-0.200660,0.398780,0.200660,0.200660,0.398780,-0.200660,0.398780,-0.398780,0.200660,-0.398780,-0.200660,-0.200660,-0.398780,0.200660,-0.398780,0.398780,-0.200660,0.0*
1,1,0.400000,0.200660,-0.200660*
1,1,0.400000,0.200660,0.200660*
1,1,0.400000,-0.200660,0.200660*
1,1,0.400000,-0.200660,-0.200660*
%
%AMD11*
4,1,8,-0.200660,-0.398780,0.200660,-0.398780,0.398780,-0.200660,0.398780,0.200660,0.200660,0.398780,-0.200660,0.398780,-0.398780,0.200660,-0.398780,-0.200660,-0.200660,-0.398780,0.0*
1,1,0.400000,-0.200660,-0.200660*
1,1,0.400000,0.200660,-0.200660*
1,1,0.400000,0.200660,0.200660*
1,1,0.400000,-0.200660,0.200660*
%
%AMD12*
4,1,8,0.749300,-0.248920,0.749300,0.248920,0.500380,0.500380,-0.500380,0.500380,-0.749300,0.248920,-0.749300,-0.248920,-0.500380,-0.500380,0.500380,-0.500380,0.749300,-0.248920,0.0*
1,1,0.500000,0.500380,-0.248920*
1,1,0.500000,0.500380,0.248920*
1,1,0.500000,-0.500380,0.248920*
1,1,0.500000,-0.500380,-0.248920*
%
%AMD27*
4,1,8,-0.533400,-0.220980,-0.220980,-0.533400,0.220980,-0.533400,0.533400,-0.220980,0.533400,0.220980,0.220980,0.533400,-0.220980,0.533400,-0.533400,0.220980,-0.533400,-0.220980,0.0*
%
%AMD28*
4,1,8,0.220980,-0.533400,0.533400,-0.220980,0.533400,0.220980,0.220980,0.533400,-0.220980,0.533400,-0.533400,0.220980,-0.533400,-0.220980,-0.220980,-0.533400,0.220980,-0.533400,0.0*
%
G04~CAMADD=10~8~0.0~0.0~315.0~315.0~78.7~0.0~15~0.0~0.0~0.0~0.0~0~0.0~0.0~0.0~0.0~0~0.0~0.0~0.0~270.0~314.0~314.0*
%ADD10D10*%
G04~CAMADD=11~8~0.0~0.0~315.0~315.0~78.7~0.0~15~0.0~0.0~0.0~0.0~0~0.0~0.0~0.0~0.0~0~0.0~0.0~0.0~180.0~314.0~314.0*
%ADD11D11*%
G04~CAMADD=12~8~0.0~0.0~393.7~590.6~98.4~0.0~15~0.0~0.0~0.0~0.0~0~0.0~0.0~0.0~0.0~0~0.0~0.0~0.0~270.0~590.0~393.0*
%ADD12D12*%
%ADD19C,0.253999*%
%ADD20C,0.304999*%
%ADD21C,0.634999*%
%ADD22C,0.507999*%
%ADD24C,0.100000*%
%ADD25C,1.066998*%
%ADD26C,1.066998*%
G04~CAMADD=27~4~0.0~0.0~420.1~420.1~0.0~123.0~0~0.0~0.0~0.0~0.0~0~0.0~0.0~0.0~0.0~0~0.0~0.0~0.0~135.0~420.1~420.1*
%ADD27D27*%
G04~CAMADD=28~4~0.0~0.0~420.1~420.1~0.0~123.0~0~0.0~0.0~0.0~0.0~0~0.0~0.0~0.0~0.0~0~0.0~0.0~0.0~225.0~420.1~420.1*
%ADD28D28*%
%ADD29C,1.299997*%
%ADD30C,1.099998*%
%ADD31R,1.099998X1.099998*%
%ADD32R,1.499997X1.499997*%
%ADD33C,1.499997*%
%ADD34C,1.269997*%
%ADD35R,1.199998X0.549999*%
%ADD36C,0.380999*%
%LNopengrab_ctrl-1*%
%LPD*%
G36*
X0123499Y0066278D02*
X0123372Y006627D01*
Y0066276*
X0123287Y0066479*
X0123154Y0066654*
X0122979Y0066787*
X0122776Y0066872*
X0122761Y0066873*
Y0066058*
Y0065243*
X0122776Y0065244*
X0122979Y0065329*
X0123154Y0065462*
X0123287Y0065637*
X0123372Y006584*
Y0065846*
X0123499Y0065838*
Y0054496*
Y0053399*
X0123479*
X012074*
X012072*
X01207Y0053403*
X0120471*
X012067Y005352*
X0120845Y0053653*
X0120978Y0053828*
X0121063Y0054031*
X0121064Y0054046*
X0119434*
X0119435Y0054031*
X011952Y0053828*
X0119653Y0053653*
X011982Y0053525*
X0119792Y0053402*
X0119778Y0053399*
X0119758*
X0107026*
X0106985Y0053519*
X0107095Y0053603*
X0107228Y0053778*
X0107313Y0053981*
X0107315Y0053996*
X0105684*
X0105685Y0053981*
X010577Y0053778*
X0105903Y0053603*
X0106013Y0053519*
X0105972Y0053399*
X0102335*
X0102294Y0053519*
X0102322Y005354*
X0102455Y0053715*
X010254Y0053918*
X0102568Y0054136*
X010254Y0054354*
X0102455Y0054557*
X0102322Y0054732*
X0102189Y0054833*
Y0056534*
X0102191Y0056536*
X0102931*
X0102956Y0056412*
X0102888Y0056383*
X0102734Y0056266*
X0102617Y0056113*
X0102543Y0055934*
X0102518Y0055743*
X0102543Y0055551*
X0102617Y0055373*
X0102734Y005522*
X0102888Y0055102*
X0103066Y0055028*
X0103258Y0055003*
X0103449Y0055028*
X0103627Y0055102*
X0103781Y005522*
X0103796Y0055239*
X0103922Y0055248*
X0104161Y0055009*
X0104894*
X0105261Y0055376*
Y005611*
X0104894Y0056476*
X0104653*
X0104616Y0056598*
X0104726Y0056672*
X0107024Y005897*
X0107125Y005912*
X010716Y0059297*
Y0059734*
X0107887*
X0107988Y0059601*
X0108163Y0059468*
X0108366Y0059383*
X0108585Y0059355*
X0108802Y0059383*
X0109005Y0059468*
X010918Y0059601*
X0109281Y0059734*
X0109601*
X0109777Y0059769*
X0109927Y005987*
X0110069Y0060012*
X0110236Y005999*
X0110453Y0060018*
X0110656Y0060103*
X0110831Y0060236*
X0110932Y0060369*
X0111832*
X0112009Y0060404*
X0112159Y0060505*
X0112405Y006075*
X0118301*
X0118402Y0060617*
X0118577Y0060484*
X0118665Y0060447*
Y00595*
X011869Y0059372*
X0118762Y0059264*
X0119681Y0058346*
Y0057026*
X0119593Y0056989*
X0119418Y0056856*
X0119285Y0056681*
X01192Y0056478*
X0119172Y0056261*
X01192Y0056042*
X0119285Y0055839*
X0119418Y0055664*
X0119593Y0055531*
X0119796Y0055446*
X0120015Y0055418*
X0120232Y0055446*
X0120435Y0055531*
X012061Y0055664*
X0120743Y0055839*
X0120828Y0056042*
X0120856Y0056261*
X0120828Y0056478*
X0120743Y0056681*
X012061Y0056856*
X0120435Y0056989*
X0120347Y0057026*
Y0058484*
X0120322Y0058612*
X012025Y005872*
X0119331Y0059638*
Y0060447*
X0119419Y0060484*
X0119594Y0060617*
X0119727Y0060792*
X0119812Y0060995*
X011984Y0061214*
X0119812Y0061431*
X0119727Y0061634*
X0119594Y0061809*
X0119419Y0061942*
X0119216Y0062027*
X0118999Y0062055*
X011878Y0062027*
X0118577Y0061942*
X0118402Y0061809*
X0118301Y0061676*
X0112213*
X0112036Y0061641*
X0111887Y006154*
X011164Y0061295*
X0110932*
X0110831Y0061428*
X0110656Y0061561*
X0110453Y0061646*
X0110236Y0061674*
X0110017Y0061646*
X0109814Y0061561*
X0109639Y0061428*
X0109506Y0061253*
X0109421Y006105*
X0109393Y0060833*
X0109403Y0060755*
X0109365Y0060712*
X0109238Y0060716*
X010918Y0060793*
X0109005Y0060926*
X0108802Y0061011*
X0108585Y0061039*
X0108366Y0061011*
X0108163Y0060926*
X0107988Y0060793*
X0107887Y006066*
X0107217*
X010716Y0060717*
Y0061708*
X0107184Y0061745*
X0107225Y0061947*
Y0065301*
X0107184Y0065503*
X010707Y0065674*
X0106191Y0066554*
Y0066723*
X0106259Y0066775*
X0106311Y0066843*
X0106909*
X0106943Y0066809*
X0107114Y0066695*
X0107316Y0066654*
X0112254*
X0112306Y0066586*
X0112481Y0066453*
X0112684Y0066368*
X0112903Y006634*
X011312Y0066368*
X0113323Y0066453*
X0113498Y0066586*
X011355Y0066654*
X0115062*
X0115263Y0066695*
X0115325Y0066736*
X0115443Y0066721*
X011566Y0066749*
X0115863Y0066834*
X0116038Y0066967*
X0116171Y0067142*
X0116256Y0067345*
X0116284Y0067564*
X0116273Y0067648*
X0116972Y0068347*
X0117086Y0068518*
X0117127Y006872*
Y0068999*
X012185*
X0121891Y0068949*
X0121892Y0068952*
X0123106*
X0123107Y0068949*
X0123148Y0068999*
X0123499*
Y0066278*
G37*
G36*
X0124499Y0069499D02*
Y0050249D01*
X0100499*
Y0053195*
X0119778*
X0119798Y0053199*
X01207*
X012072Y0053195*
X0123499*
X0123519Y0053199*
X0123699*
X01237Y0053382*
X0123703Y0053399*
Y0054496*
X0123748Y0069499*
X0123291*
X0123283Y0069505*
X0123094Y0069735*
X0123106Y0069796*
X0121892*
X0121904Y0069735*
X0121715Y0069505*
X0121707Y0069499*
X0117127*
Y006988*
X0118228Y0070982*
X0118305Y0071096*
X0118342Y0071153*
X0118383Y0071355*
Y0071832*
X0118432Y0071906*
X0118463Y0072062*
Y0072462*
X0118432Y0072618*
X0118343Y007275*
X0118211Y0072839*
X0118055Y007287*
X0117655*
X0117499Y0072839*
X0117367Y007275*
X0117149Y0072711*
X0117094Y007275*
X0116961Y0072839*
X0116805Y007287*
X0116405*
X0116249Y0072839*
X0116117Y007275*
X0116028Y0072618*
X0115997Y0072462*
Y0072309*
X0115096Y0071408*
X0114199*
X011413Y0071394*
X0113471Y0072054*
X011348Y0072099*
Y0072599*
X0113445Y0072775*
X0113345Y0072923*
X0113197Y0073023*
X0113021Y0073058*
X0112021*
X0111845Y0073023*
X0111697Y0072923*
X0111597Y0072775*
X0111584Y0072708*
X0111465*
X0111327Y0072681*
X0111211Y0072603*
X0111045Y0072437*
X0110967Y0072321*
X011094Y0072183*
Y007211*
X0109368*
Y0071611*
X0109067Y0071551*
X0108981Y0071681*
X0108745Y0071917*
X0108615Y0072003*
X010859Y0072009*
X0108463Y0072033*
X0108368*
Y007211*
X0106822*
X0106629Y0072346*
X0106651Y0072459*
X0106247*
Y0072055*
X01064Y0072085*
X0106499Y0072151*
X0106768Y0072009*
Y007116*
Y0070888*
X0107569*
Y0070482*
X0106768*
Y007021*
Y0070133*
X010645*
X0105192Y0071391*
Y0072113*
X0105267Y0072163*
X0105571*
X0105688Y0072085*
X0105841Y0072055*
Y0072662*
Y0073269*
X0105688Y0073239*
X0105556Y007315*
X01055Y0073111*
X0105363Y0073136*
X0105192Y0073224*
Y0073766*
X0105162Y0073919*
X0105076Y0074048*
X0104397Y0074726*
Y0074764*
X0104486Y0074896*
X0104527Y0075097*
X010454Y0079273*
X01045Y0079475*
X0104386Y0079647*
X0104232Y007975*
X0104131Y0079902*
X010396Y0080016*
X0103759Y0080057*
X0103188*
X0102622Y0080622*
X0102451Y0080736*
X0102423Y0080742*
X0102345Y0080845*
X010217Y0080978*
X0101967Y0081063*
X0101749Y0081091*
X0101531Y0081063*
X0101328Y0080978*
X0101153Y0080845*
X010102Y008067*
X0100935Y0080467*
X0100907Y0080249*
X0100935Y0080031*
X010102Y0079828*
X0101153Y0079653*
X0101328Y007952*
X0101531Y0079435*
X0101749Y0079407*
X0101967Y0079435*
X010217Y007952*
X0102205Y0079547*
X0102596Y0079156*
X010271Y0079079*
X0102767Y0079042*
X0102969Y0079001*
X0103268*
X0103483Y0078785*
X0103471Y0075101*
X0103511Y0074899*
X0103601Y0074763*
Y0074561*
X0103626Y0074434*
X0103632Y0074409*
X0103717Y007428*
X0104396Y0073601*
Y0073211*
X0104306Y007315*
X0104217Y0073018*
X0104186Y0072862*
Y0072724*
X0103905Y0072608*
X0103573Y0072939*
X0103584Y0073025*
X0103556Y0073242*
X0103471Y0073445*
X0103338Y007362*
X0103163Y0073753*
X010296Y0073838*
X0102743Y0073866*
X0102524Y0073838*
X0102321Y0073753*
X0102146Y007362*
X0102013Y0073445*
X0101928Y0073242*
X01019Y0073025*
X0101928Y0072806*
X0102013Y0072603*
X0102146Y0072428*
X0102321Y0072295*
X0102524Y007221*
X0102743Y0072182*
X0102827Y0072193*
X0103171Y0071848*
Y0069499*
X0100499*
Y0089499*
X0124499*
Y0069499*
G37*
G36*
X0116014Y0068882D02*
X0115527Y0068394D01*
X0115443Y0068405*
X0115224Y0068377*
X0115021Y0068292*
X0114846Y0068159*
X0114713Y0067984*
X0114628Y0067781*
X0114619Y006771*
X011355*
X0113498Y0067778*
X0113323Y0067911*
X011312Y0067996*
X0112903Y0068024*
X0112684Y0067996*
X0112481Y0067911*
X0112306Y0067778*
X0112254Y006771*
X0107535*
X01075Y0067744*
X0107329Y0067858*
X0107127Y0067898*
X0106311*
X0106259Y0067966*
X0106084Y00681*
X0105881Y0068184*
X0105664Y0068213*
X0105445Y0068184*
X0105242Y00681*
X0105067Y0067966*
X0104934Y0067792*
X0104849Y0067589*
X0104821Y0067371*
X0104849Y0067153*
X0104934Y006695*
X0105067Y0066775*
X0105135Y0066723*
Y0066335*
X0105176Y0066133*
X010529Y0065962*
X0106169Y0065082*
Y0061947*
X010621Y0061745*
X0106234Y0061708*
Y0060525*
Y0059489*
X0104483Y0057738*
X0104388Y0057822*
X010444Y0057889*
X0104514Y0058068*
X0104539Y0058259*
X0104514Y005845*
X010444Y0058629*
X0104322Y0058782*
X0104259Y0058831*
Y0058957*
X0104322Y0059006*
X010444Y0059159*
X0104514Y0059338*
X0104539Y0059529*
X0104514Y005972*
X010444Y0059899*
X0104322Y0060052*
X0104259Y00601*
Y0060227*
X0104322Y0060276*
X010444Y0060429*
X0104514Y0060608*
X0104539Y0060799*
X0104514Y006099*
X010444Y0061169*
X0104322Y0061322*
X0104259Y006137*
Y0061498*
X0104322Y0061546*
X010444Y0061699*
X0104514Y0061878*
X0104539Y0062069*
X0104514Y006226*
X010444Y0062439*
X0104322Y0062592*
X0104259Y006264*
Y0062768*
X0104322Y0062816*
X010444Y0062969*
X0104514Y0063148*
X0104539Y0063339*
X0104514Y006353*
X010444Y0063709*
X0104322Y0063862*
X0104169Y006398*
X010399Y0064054*
X0103799Y0064079*
X0103608Y0064054*
X0103429Y006398*
X0103276Y0063862*
X0103158Y0063709*
X0103084Y006353*
X0103059Y0063339*
X0103084Y0063148*
X0103158Y0062969*
X0103276Y0062816*
X0103339Y0062768*
Y006264*
X0103276Y0062592*
X0103228Y0062529*
X0103101*
X0103052Y0062592*
X0102899Y006271*
X010272Y0062784*
X0102529Y0062809*
X0102338Y0062784*
X0102159Y006271*
X0102006Y0062592*
X0101888Y0062439*
X0101814Y006226*
X0101789Y0062069*
X0101814Y0061878*
X0101888Y0061699*
X0102006Y0061546*
X0102159Y0061428*
X0102338Y0061354*
X0102529Y0061329*
X010272Y0061354*
X0102899Y0061428*
X0103052Y0061546*
X0103101Y0061609*
X0103228*
X0103276Y0061546*
X0103339Y0061498*
Y006137*
X0103276Y0061322*
X0103158Y0061169*
X0103084Y006099*
X0103059Y0060799*
X0103084Y0060608*
X0103158Y0060429*
X0103276Y0060276*
X0103339Y0060227*
Y00601*
X0103276Y0060052*
X0103158Y0059899*
X0103084Y005972*
X0103059Y0059529*
X0103084Y0059338*
X0103158Y0059159*
X0103276Y0059006*
X0103339Y0058957*
Y0058831*
X0103276Y0058782*
X0103261Y0058762*
X0103134Y0058754*
X0102896Y0058992*
X0102162*
X0101796Y0058626*
Y0057892*
X0102066Y0057622*
Y0057529*
X0101999Y0057462*
X0101822Y0057427*
X0101672Y0057326*
X0101399Y0057053*
X0101298Y0056903*
X0101263Y0056726*
Y0054833*
X010113Y0054732*
X0100997Y0054557*
X0100912Y0054354*
X0100884Y0054136*
X0100912Y0053918*
X0100997Y0053715*
X010113Y005354*
X0101158Y0053519*
X0101117Y0053399*
X0100499*
Y0068999*
X0115966*
X0116014Y0068882*
G37*
%LNopengrab_ctrl-2*%
%LPC*%
G36*
X0122452Y0063314D02*
Y0062702D01*
X0123064*
X0123063Y0062717*
X0122978Y006292*
X0122845Y0063095*
X012267Y0063228*
X0122467Y0063313*
X0122452Y0063314*
G37*
G36*
X0116814Y0063796D02*
X0116202D01*
Y0063184*
X0116217Y0063185*
X011642Y006327*
X0116595Y0063403*
X0116728Y0063578*
X0116813Y0063781*
X0116814Y0063796*
G37*
G36*
X0115796D02*
X0115184D01*
X0115185Y0063781*
X011527Y0063578*
X0115403Y0063403*
X0115578Y006327*
X0115781Y0063185*
X0115796Y0063184*
Y0063796*
G37*
G36*
X0122047Y0063314D02*
X0122031Y0063313D01*
X0121828Y0063228*
X0121653Y0063095*
X012152Y006292*
X0121435Y0062717*
X0121434Y0062702*
X0122047*
Y0063314*
G37*
G36*
X0110202Y0059064D02*
Y0058452D01*
X0110814*
X0110813Y0058467*
X0110728Y005867*
X0110595Y0058845*
X011042Y0058978*
X0110217Y0059063*
X0110202Y0059064*
G37*
G36*
X0109796D02*
X0109781Y0059063D01*
X0109578Y0058978*
X0109403Y0058845*
X010927Y005867*
X0109185Y0058467*
X0109184Y0058452*
X0109796*
Y0059064*
G37*
G36*
X0123064Y0062296D02*
X0122452D01*
Y0061684*
X0122467Y0061685*
X012267Y006177*
X0122845Y0061903*
X0122978Y0062078*
X0123063Y0062281*
X0123064Y0062296*
G37*
G36*
X0122047D02*
X0121434D01*
X0121435Y0062281*
X012152Y0062078*
X0121653Y0061903*
X0121828Y006177*
X0122031Y0061685*
X0122047Y0061684*
Y0062296*
G37*
G36*
X0103936Y0066219D02*
X0103921Y0066218D01*
X0103718Y0066133*
X0103543Y0066*
X010341Y0065825*
X0103325Y0065622*
X0103324Y0065607*
X0103936*
Y0066219*
G37*
G36*
X0122355Y0065855D02*
X0121743D01*
X0121744Y006584*
X0121829Y0065637*
X0121962Y0065462*
X0122137Y0065329*
X012234Y0065244*
X0122355Y0065243*
Y0065855*
G37*
G36*
Y0066873D02*
X012234Y0066872D01*
X0122137Y0066787*
X0121962Y0066654*
X0121829Y0066479*
X0121744Y0066276*
X0121743Y0066261*
X0122355*
Y0066873*
G37*
G36*
X0104342Y0066219D02*
Y0065607D01*
X0104954*
X0104953Y0065622*
X0104868Y0065825*
X0104735Y0066*
X010456Y0066133*
X0104357Y0066218*
X0104342Y0066219*
G37*
G36*
X0116202Y0064814D02*
Y0064202D01*
X0116814*
X0116813Y0064217*
X0116728Y006442*
X0116595Y0064595*
X011642Y0064728*
X0116217Y0064813*
X0116202Y0064814*
G37*
G36*
X0115796D02*
X0115781Y0064813D01*
X0115578Y0064728*
X0115403Y0064595*
X011527Y006442*
X0115185Y0064217*
X0115184Y0064202*
X0115796*
Y0064814*
G37*
G36*
X0104954Y0065201D02*
X0104342D01*
Y0064589*
X0104357Y006459*
X010456Y0064675*
X0104735Y0064808*
X0104868Y0064983*
X0104953Y0065186*
X0104954Y0065201*
G37*
G36*
X0103936D02*
X0103324D01*
X0103325Y0065186*
X010341Y0064983*
X0103543Y0064808*
X0103718Y0064675*
X0103921Y006459*
X0103936Y0064589*
Y0065201*
G37*
G36*
X0112296Y005293D02*
X0112251Y0052925D01*
X011202Y0052829*
X0111821Y0052677*
X0111669Y0052478*
X0111573Y0052247*
X0111568Y0052202*
X0112296*
Y005293*
G37*
G36*
X011343Y0051796D02*
X0112702D01*
Y0051068*
X0112747Y0051073*
X0112978Y0051169*
X0113177Y0051321*
X0113329Y005152*
X0113425Y0051751*
X011343Y0051796*
G37*
G36*
X0106296Y0055014D02*
X0106281Y0055013D01*
X0106078Y0054928*
X0105903Y0054795*
X010577Y005462*
X0105685Y0054417*
X0105684Y0054402*
X0106296*
Y0055014*
G37*
G36*
X0112702Y005293D02*
Y0052202D01*
X011343*
X0113425Y0052247*
X0113329Y0052478*
X0113177Y0052677*
X0112978Y0052829*
X0112747Y0052925*
X0112702Y005293*
G37*
G36*
X0112296Y0051796D02*
X0111568D01*
X0111573Y0051751*
X0111669Y005152*
X0111821Y0051321*
X011202Y0051169*
X0112251Y0051073*
X0112296Y0051068*
Y0051796*
G37*
G36*
X0109959Y0052957D02*
X0109711Y0052925D01*
X010948Y0052829*
X0109281Y0052677*
X0109129Y0052478*
X0109033Y0052247*
X0109001Y0051999*
X0109033Y0051751*
X0109129Y005152*
X0109281Y0051321*
X010948Y0051169*
X0109711Y0051073*
X0109959Y0051041*
X0110207Y0051073*
X0110438Y0051169*
X0110637Y0051321*
X0110789Y005152*
X0110885Y0051751*
X0110917Y0051999*
X0110885Y0052247*
X0110789Y0052478*
X0110637Y0052677*
X0110438Y0052829*
X0110207Y0052925*
X0109959Y0052957*
G37*
G36*
X0107419D02*
X0107171Y0052925D01*
X010694Y0052829*
X0106741Y0052677*
X0106589Y0052478*
X0106493Y0052247*
X0106461Y0051999*
X0106493Y0051751*
X0106589Y005152*
X0106741Y0051321*
X010694Y0051169*
X0107171Y0051073*
X0107419Y0051041*
X0107667Y0051073*
X0107898Y0051169*
X0108097Y0051321*
X0108249Y005152*
X0108345Y0051751*
X0108377Y0051999*
X0108345Y0052247*
X0108249Y0052478*
X0108097Y0052677*
X0107898Y0052829*
X0107667Y0052925*
X0107419Y0052957*
G37*
G36*
X0118529Y0052949D02*
X0116629D01*
Y0051049*
X0118529*
Y0052949*
G37*
G36*
X0115039Y0052957D02*
X0114791Y0052925D01*
X011456Y0052829*
X0114361Y0052677*
X0114209Y0052478*
X0114113Y0052247*
X0114081Y0051999*
X0114113Y0051751*
X0114209Y005152*
X0114361Y0051321*
X011456Y0051169*
X0114791Y0051073*
X0115039Y0051041*
X0115287Y0051073*
X0115518Y0051169*
X0115717Y0051321*
X0115869Y005152*
X0115965Y0051751*
X0115997Y0051999*
X0115965Y0052247*
X0115869Y0052478*
X0115717Y0052677*
X0115518Y0052829*
X0115287Y0052925*
X0115039Y0052957*
G37*
G36*
X0110814Y0058046D02*
X0110202D01*
Y0057434*
X0110217Y0057435*
X011042Y005752*
X0110595Y0057653*
X0110728Y0057828*
X0110813Y0058031*
X0110814Y0058046*
G37*
G36*
X0109796D02*
X0109184D01*
X0109185Y0058031*
X010927Y0057828*
X0109403Y0057653*
X0109578Y005752*
X0109781Y0057435*
X0109796Y0057434*
Y0058046*
G37*
G36*
X0116534Y0058345D02*
Y0057733D01*
X0117146*
X0117145Y0057748*
X011706Y0057951*
X0116927Y0058126*
X0116752Y0058259*
X0116549Y0058344*
X0116534Y0058345*
G37*
G36*
X0116128D02*
X0116113Y0058344D01*
X011591Y0058259*
X0115735Y0058126*
X0115602Y0057951*
X0115517Y0057748*
X0115516Y0057733*
X0116128*
Y0058345*
G37*
G36*
X0117146Y0057327D02*
X0116534D01*
Y0056715*
X0116549Y0056716*
X0116752Y0056801*
X0116927Y0056934*
X011706Y0057109*
X0117145Y0057312*
X0117146Y0057327*
G37*
G36*
X0120046Y0055064D02*
X0120031Y0055063D01*
X0119828Y0054978*
X0119653Y0054845*
X011952Y005467*
X0119435Y0054467*
X0119434Y0054452*
X0120046*
Y0055064*
G37*
G36*
X0106702Y0055014D02*
Y0054402D01*
X0107315*
X0107313Y0054417*
X0107228Y005462*
X0107095Y0054795*
X010692Y0054928*
X0106717Y0055013*
X0106702Y0055014*
G37*
G36*
X0116128Y0057327D02*
X0115516D01*
X0115517Y0057312*
X0115602Y0057109*
X0115735Y0056934*
X011591Y0056801*
X0116113Y0056716*
X0116128Y0056715*
Y0057327*
G37*
G36*
X0120452Y0055064D02*
Y0054452D01*
X0121064*
X0121063Y0054467*
X0120978Y005467*
X0120845Y0054845*
X012067Y0054978*
X0120467Y0055063*
X0120452Y0055064*
G37*
G36*
X0122499Y0086655D02*
X0122303Y008663D01*
X0122121Y0086554*
X0121964Y0086434*
X0121844Y0086277*
X0121768Y0086095*
X0121743Y0085899*
X0121768Y0085703*
X0121844Y0085521*
X0121964Y0085364*
X0122121Y0085244*
X0122303Y0085168*
X0122499Y0085143*
X0122695Y0085168*
X0122877Y0085244*
X0123034Y0085364*
X0123154Y0085521*
X012323Y0085703*
X0123255Y0085899*
X012323Y0086095*
X0123154Y0086277*
X0123034Y0086434*
X0122877Y0086554*
X0122695Y008663*
X0122499Y0086655*
G37*
G36*
X0120499D02*
X0120303Y008663D01*
X0120121Y0086554*
X0119964Y0086434*
X0119844Y0086277*
X0119768Y0086095*
X0119743Y0085899*
X0119768Y0085703*
X0119844Y0085521*
X0119964Y0085364*
X0120121Y0085244*
X0120303Y0085168*
X0120499Y0085143*
X0120695Y0085168*
X0120877Y0085244*
X0121034Y0085364*
X0121154Y0085521*
X012123Y0085703*
X0121255Y0085899*
X012123Y0086095*
X0121154Y0086277*
X0121034Y0086434*
X0120877Y0086554*
X0120695Y008663*
X0120499Y0086655*
G37*
G36*
X0118296Y0085696D02*
X0117771D01*
X0117844Y0085521*
X0117964Y0085364*
X0118121Y0085244*
X0118296Y0085171*
Y0085696*
G37*
G36*
X0117249Y0086649D02*
X0115749D01*
Y0085149*
X0117249*
Y0086649*
G37*
G36*
X0118702Y0080427D02*
Y0079902D01*
X0119227*
X0119154Y0080077*
X0119034Y0080234*
X0118877Y0080354*
X0118702Y0080427*
G37*
G36*
X0118296D02*
X0118121Y0080354D01*
X0117964Y0080234*
X0117844Y0080077*
X0117771Y0079902*
X0118296*
Y0080427*
G37*
G36*
X0114999Y0085056D02*
X0114777Y0085027D01*
X011457Y0084941*
X0114393Y0084805*
X0114257Y0084628*
X0114171Y0084421*
X0114142Y0084199*
X0114171Y0083977*
X0114257Y008377*
X0114393Y0083593*
X011457Y0083457*
X0114777Y0083371*
X0114999Y0083342*
X0115221Y0083371*
X0115428Y0083457*
X0115605Y0083593*
X0115741Y008377*
X0115827Y0083977*
X0115856Y0084199*
X0115827Y0084421*
X0115741Y0084628*
X0115605Y0084805*
X0115428Y0084941*
X0115221Y0085027*
X0114999Y0085056*
G37*
G36*
X0107634Y0081939D02*
X0107443Y0081915D01*
X0107264Y008184*
X0107111Y0081722*
X0106951Y0081712*
X0106731Y0081932*
X0105997*
X0105631Y0081566*
Y0080832*
X0105997Y0080466*
X0106731*
X0106951Y0080686*
X0107111Y0080676*
X0107264Y0080558*
X0107443Y0080484*
X0107634Y0080459*
X0107825Y0080484*
X0108004Y0080558*
X0108157Y0080676*
X0108275Y0080829*
X0108349Y0081008*
X0108374Y0081199*
X0108349Y008139*
X0108275Y0081569*
X0108157Y0081722*
X0108004Y008184*
X0107825Y0081915*
X0107634Y0081939*
G37*
G36*
X0119227Y0085696D02*
X0118702D01*
Y0085171*
X0118877Y0085244*
X0119034Y0085364*
X0119154Y0085521*
X0119227Y0085696*
G37*
G36*
X0108369Y0087796D02*
X0107622D01*
Y0087049*
X0108369*
Y0087796*
G37*
G36*
X0107216D02*
X0106469D01*
Y0087049*
X0107216*
Y0087796*
G37*
G36*
X0108369Y0088949D02*
X0107622D01*
Y0088202*
X0108369*
Y0088949*
G37*
G36*
X0107216D02*
X0106469D01*
Y0088202*
X0107216*
Y0088949*
G37*
G36*
X0118702Y0086627D02*
Y0086102D01*
X0119227*
X0119154Y0086277*
X0119034Y0086434*
X0118877Y0086554*
X0118702Y0086627*
G37*
G36*
X0118296D02*
X0118121Y0086554D01*
X0117964Y0086434*
X0117844Y0086277*
X0117771Y0086102*
X0118296*
Y0086627*
G37*
G36*
X0112499Y0088957D02*
X0112251Y0088925D01*
X011202Y0088829*
X0111821Y0088677*
X0111669Y0088478*
X0111573Y0088247*
X0111541Y0087999*
X0111573Y0087751*
X0111669Y008752*
X0111821Y0087321*
X011202Y0087169*
X0112251Y0087073*
X0112499Y0087041*
X0112747Y0087073*
X0112978Y0087169*
X0113177Y0087321*
X0113329Y008752*
X0113425Y0087751*
X0113457Y0087999*
X0113425Y0088247*
X0113329Y0088478*
X0113177Y0088677*
X0112978Y0088829*
X0112747Y0088925*
X0112499Y0088957*
G37*
G36*
X0109959D02*
X0109711Y0088925D01*
X010948Y0088829*
X0109281Y0088677*
X0109129Y0088478*
X0109033Y0088247*
X0109001Y0087999*
X0109033Y0087751*
X0109129Y008752*
X0109281Y0087321*
X010948Y0087169*
X0109711Y0087073*
X0109959Y0087041*
X0110207Y0087073*
X0110438Y0087169*
X0110637Y0087321*
X0110789Y008752*
X0110885Y0087751*
X0110917Y0087999*
X0110885Y0088247*
X0110789Y0088478*
X0110637Y0088677*
X0110438Y0088829*
X0110207Y0088925*
X0109959Y0088957*
G37*
G36*
X0119227Y0079496D02*
X0118702D01*
Y0078971*
X0118877Y0079044*
X0119034Y0079164*
X0119154Y0079321*
X0119227Y0079496*
G37*
G36*
X0115658Y0072996D02*
X0114902D01*
Y007249*
X0115199*
X0115375Y0072525*
X0115523Y0072625*
X0115623Y0072773*
X0115658Y0072949*
Y0072996*
G37*
G36*
X0114496D02*
X011374D01*
Y0072949*
X0113775Y0072773*
X0113875Y0072625*
X0114023Y0072525*
X0114199Y007249*
X0114496*
Y0072996*
G37*
G36*
Y0073908D02*
X0114199D01*
X0114023Y0073873*
X0113875Y0073773*
X0113775Y0073625*
X011374Y0073449*
Y0073402*
X0114496*
Y0073908*
G37*
G36*
X0106247Y0073269D02*
Y0072865D01*
X0106651*
X0106621Y0073018*
X0106532Y007315*
X01064Y0073239*
X0106247Y0073269*
G37*
G36*
X0123106Y0068546D02*
X0122702D01*
Y0068142*
X0122855Y0068172*
X0122987Y0068261*
X0123076Y0068393*
X0123106Y0068546*
G37*
G36*
X0122296D02*
X0121892D01*
X0121922Y0068393*
X0122011Y0068261*
X0122143Y0068172*
X0122296Y0068142*
Y0068546*
G37*
G36*
X0122702Y0070606D02*
Y0070202D01*
X0123106*
X0123076Y0070355*
X0122987Y0070487*
X0122855Y0070576*
X0122702Y0070606*
G37*
G36*
X0122296D02*
X0122143Y0070576D01*
X0122011Y0070487*
X0121922Y0070355*
X0121892Y0070202*
X0122296*
Y0070606*
G37*
G36*
X0115199Y0073908D02*
X0114902D01*
Y0073402*
X0115658*
Y0073449*
X0115623Y0073625*
X0115523Y0073773*
X0115375Y0073873*
X0115199Y0073908*
G37*
G36*
X0122499Y0080455D02*
X0122303Y008043D01*
X0122121Y0080354*
X0121964Y0080234*
X0121844Y0080077*
X0121768Y0079895*
X0121743Y0079699*
X0121768Y0079503*
X0121844Y0079321*
X0121964Y0079164*
X0122121Y0079044*
X0122303Y0078968*
X0122499Y0078943*
X0122695Y0078968*
X0122877Y0079044*
X0123034Y0079164*
X0123154Y0079321*
X012323Y0079503*
X0123255Y0079699*
X012323Y0079895*
X0123154Y0080077*
X0123034Y0080234*
X0122877Y0080354*
X0122695Y008043*
X0122499Y0080455*
G37*
G36*
X0120499D02*
X0120303Y008043D01*
X0120121Y0080354*
X0119964Y0080234*
X0119844Y0080077*
X0119768Y0079895*
X0119743Y0079699*
X0119768Y0079503*
X0119844Y0079321*
X0119964Y0079164*
X0120121Y0079044*
X0120303Y0078968*
X0120499Y0078943*
X0120695Y0078968*
X0120877Y0079044*
X0121034Y0079164*
X0121154Y0079321*
X012123Y0079503*
X0121255Y0079699*
X012123Y0079895*
X0121154Y0080077*
X0121034Y0080234*
X0120877Y0080354*
X0120695Y008043*
X0120499Y0080455*
G37*
G36*
X0118296Y0079496D02*
X0117771D01*
X0117844Y0079321*
X0117964Y0079164*
X0118121Y0079044*
X0118296Y0078971*
Y0079496*
G37*
G36*
X0117249Y0080449D02*
X0115749D01*
Y0078949*
X0117249*
Y0080449*
G37*
G36*
X0120269Y0075368D02*
X012002Y0075336D01*
X0119789Y007524*
X011959Y0075088*
X0119438Y0074889*
X0119342Y0074658*
X011931Y007441*
X0119342Y0074162*
X0119438Y0073931*
X011959Y0073732*
X0119789Y007358*
X012002Y0073484*
X0120269Y0073452*
X0120516Y0073484*
X0120747Y007358*
X0120946Y0073732*
X0121098Y0073931*
X0121194Y0074162*
X0121226Y007441*
X0121194Y0074658*
X0121098Y0074889*
X0120946Y0075088*
X0120747Y007524*
X0120516Y0075336*
X0120269Y0075368*
G37*
G36*
X0117729D02*
X011748Y0075336D01*
X0117249Y007524*
X011705Y0075088*
X0116898Y0074889*
X0116802Y0074658*
X011677Y007441*
X0116802Y0074162*
X0116898Y0073931*
X011705Y0073732*
X0117249Y007358*
X011748Y0073484*
X0117729Y0073452*
X0117976Y0073484*
X0118207Y007358*
X0118406Y0073732*
X0118558Y0073931*
X0118654Y0074162*
X0118686Y007441*
X0118654Y0074658*
X0118558Y0074889*
X0118406Y0075088*
X0118207Y007524*
X0117976Y0075336*
X0117729Y0075368*
G37*
G36*
X0114999Y0078856D02*
X0114777Y0078827D01*
X011457Y0078741*
X0114393Y0078605*
X0114257Y0078428*
X0114171Y0078221*
X0114142Y0077999*
X0114171Y0077777*
X0114257Y007757*
X0114393Y0077393*
X011457Y0077257*
X0114777Y0077171*
X0114999Y0077142*
X0115221Y0077171*
X0115428Y0077257*
X0115605Y0077393*
X0115741Y007757*
X0115827Y0077777*
X0115856Y0077999*
X0115827Y0078221*
X0115741Y0078428*
X0115605Y0078605*
X0115428Y0078741*
X0115221Y0078827*
X0114999Y0078856*
G37*
G36*
X0123758Y007536D02*
X0121858D01*
Y007346*
X0123758*
Y007536*
G37*
%LNopengrab_ctrl-3*%
%LPD*%
G54D10*
X0122499Y0069999D03*
Y0068749D03*
G54D11*
X0104794Y0072662D03*
X0106045D03*
X0117856Y0072263D03*
X0116605D03*
G54D12*
X0112522Y0072349D03*
Y006985D03*
X0114699Y0070699D03*
Y0073199D03*
G54D19*
X0120015Y0056261D02*
Y0058484D01*
X0118999Y00595D02*
X0120015Y0058484D01*
X0118999Y00595D02*
Y0061214D01*
G54D20*
X0106045Y0071254D02*
Y0072263D01*
Y0071254D02*
X0106613Y0070685D01*
X0107569*
X0110168Y0071635D02*
X0111035D01*
X0111299Y0071899*
Y0072183*
X0112407Y0069735D02*
X0112522Y006985D01*
X0110168Y0069735D02*
X0112407D01*
X0111299Y0072183D02*
X0111465Y0072349D01*
X0112522*
G54D21*
X0102743Y0073025D02*
X0103699Y0072067D01*
Y0068199D02*
Y0072067D01*
X0102499Y0066999D02*
X0103699Y0068199D01*
X0115443Y0067564D02*
X0116599Y006872D01*
Y0070099*
X0101749Y0080249D02*
X0102249D01*
X0102969Y0079529*
X0103759*
X0103999Y0075099D02*
X0104013Y0079275D01*
X0107316Y0067183D02*
X0112903D01*
X0107127Y0067371D02*
X0107316Y0067183D01*
X0105664Y0067371D02*
X0107127D01*
X0105664Y0066335D02*
Y0067371D01*
Y0066335D02*
X0106697Y0065301D01*
X0117856Y0071355D02*
Y0072263D01*
X0116599Y0070099D02*
X0117856Y0071355D01*
X0112903Y0067183D02*
X0115062D01*
X0115443Y0067564*
X0106697Y0061947D02*
Y0065301D01*
G54D22*
X0101999Y0056999D02*
X0104399D01*
X0102529Y0057029D02*
Y0058159D01*
X0104399Y0056999D02*
X0106697Y0059297D01*
X0101727Y0056726D02*
X0101999Y0056999D01*
X0106697Y0059297D02*
Y0060525D01*
X0112522Y0072349D02*
X0114171Y0070699D01*
X0115042*
X0116605Y0072263*
X0112213Y0061214D02*
X0118999D01*
X0111832Y0060833D02*
X0112213Y0061214D01*
X0110236Y0060833D02*
X0111832D01*
X0101727Y0054737D02*
Y0056726D01*
X0107025Y0060198D02*
X0108585D01*
X0109601*
X0110236Y0060833*
X0106697Y0060525D02*
X0107025Y0060198D01*
X0106697Y0060525D02*
Y0061947D01*
G54D24*
X0099999Y0089999D02*
X0124999D01*
Y0049999D02*
Y0089999D01*
X0099999Y0049999D02*
X0124999D01*
X0099999D02*
Y0089999D01*
G54D25*
X0102529Y0063339D03*
Y0062069D03*
X0103799Y0060799D03*
Y0062069D03*
Y0063339D03*
G54D26*
X0102529Y0060799D03*
Y0059529D03*
X0103799D03*
Y0058259D03*
X0103258Y0055743D03*
X0107634Y0081199D03*
G54D27*
X0102529Y0058259D03*
G54D28*
X0104528Y0055743D03*
X0106364Y0081199D03*
G54D29*
X0114999Y0084199D03*
Y0077999D03*
G54D30*
X0122499Y0085899D03*
X0120499D03*
X0118499D03*
Y0079699D03*
X0120499D03*
X0122499D03*
G54D31*
X0116499Y0085899D03*
Y0079699D03*
G54D32*
X0122809Y007441D03*
X0107419Y0087999D03*
X0117579Y0051999D03*
G54D33*
X0120269Y007441D03*
X0117729D03*
X0109959Y0087999D03*
X0112499D03*
X0107419Y0051999D03*
X0109959D03*
X0112499D03*
X0115039D03*
G54D34*
X0103644Y0065899D03*
X0106499Y0054199D03*
X0101727Y0054136D03*
X0101749Y0080249D03*
X0118999Y0061214D03*
X0110236Y0060833D03*
X0108585Y0060198D03*
X0105664Y0067371D03*
X0112903Y0067183D03*
X0102743Y0073025D03*
X0120015Y0056261D03*
X0115443Y0067564D03*
X0116332Y0057531D03*
X0115999Y0063999D03*
X0120249Y0054249D03*
X0122249Y0062499D03*
X0109999Y0058249D03*
X0122558Y0066058D03*
G54D35*
X0110168Y0069735D03*
Y0071635D03*
X0107569D03*
Y0070685D03*
Y0069735D03*
G54D36*
X0104794Y0072662D02*
Y0073766D01*
X0103999Y0074561D02*
X0104794Y0073766D01*
X0103999Y0074561D02*
Y0075099D01*
X0104794Y0071226D02*
Y0072662D01*
Y0071226D02*
X0106285Y0069735D01*
X0107569*
X0108435*
X0108699Y0069999*
Y0071399*
X0108463Y0071635D02*
X0108699Y0071399D01*
X0107569Y0071635D02*
X0108463D01*
M02*