%FSTAX43Y43*%
%MOMM*%
%SFA1B1*%

%IPPOS*%
%AMD10*
4,1,8,0.398780,-0.200660,0.398780,0.200660,0.200660,0.398780,-0.200660,0.398780,-0.398780,0.200660,-0.398780,-0.200660,-0.200660,-0.398780,0.200660,-0.398780,0.398780,-0.200660,0.0*
1,1,0.400000,0.200660,-0.200660*
1,1,0.400000,0.200660,0.200660*
1,1,0.400000,-0.200660,0.200660*
1,1,0.400000,-0.200660,-0.200660*
%
%AMD11*
4,1,8,-0.200660,-0.398780,0.200660,-0.398780,0.398780,-0.200660,0.398780,0.200660,0.200660,0.398780,-0.200660,0.398780,-0.398780,0.200660,-0.398780,-0.200660,-0.200660,-0.398780,0.0*
1,1,0.400000,-0.200660,-0.200660*
1,1,0.400000,0.200660,-0.200660*
1,1,0.400000,0.200660,0.200660*
1,1,0.400000,-0.200660,0.200660*
%
%AMD12*
4,1,8,0.749300,-0.248920,0.749300,0.248920,0.500380,0.500380,-0.500380,0.500380,-0.749300,0.248920,-0.749300,-0.248920,-0.500380,-0.500380,0.500380,-0.500380,0.749300,-0.248920,0.0*
1,1,0.500000,0.500380,-0.248920*
1,1,0.500000,0.500380,0.248920*
1,1,0.500000,-0.500380,0.248920*
1,1,0.500000,-0.500380,-0.248920*
%
%AMD27*
4,1,8,-0.533400,-0.220980,-0.220980,-0.533400,0.220980,-0.533400,0.533400,-0.220980,0.533400,0.220980,0.220980,0.533400,-0.220980,0.533400,-0.533400,0.220980,-0.533400,-0.220980,0.0*
%
%AMD28*
4,1,8,0.220980,-0.533400,0.533400,-0.220980,0.533400,0.220980,0.220980,0.533400,-0.220980,0.533400,-0.533400,0.220980,-0.533400,-0.220980,-0.220980,-0.533400,0.220980,-0.533400,0.0*
%
G04~CAMADD=10~8~0.0~0.0~315.0~315.0~78.7~0.0~15~0.0~0.0~0.0~0.0~0~0.0~0.0~0.0~0.0~0~0.0~0.0~0.0~270.0~314.0~314.0*
%ADD10D10*%
G04~CAMADD=11~8~0.0~0.0~315.0~315.0~78.7~0.0~15~0.0~0.0~0.0~0.0~0~0.0~0.0~0.0~0.0~0~0.0~0.0~0.0~180.0~314.0~314.0*
%ADD11D11*%
G04~CAMADD=12~8~0.0~0.0~393.7~590.6~98.4~0.0~15~0.0~0.0~0.0~0.0~0~0.0~0.0~0.0~0.0~0~0.0~0.0~0.0~270.0~590.0~393.0*
%ADD12D12*%
%ADD13O,0.299999X1.699997*%
%ADD14O,1.699997X0.299999*%
%ADD15R,0.499999X0.999998*%
%ADD16R,1.399997X1.099998*%
%ADD17R,1.699997X2.399995*%
%ADD18O,0.599999X2.199996*%
%ADD19C,0.253999*%
%ADD20C,0.304999*%
%ADD21C,0.634999*%
%ADD22C,0.507999*%
%ADD23R,4.999990X2.999994*%
%ADD24C,0.100000*%
%ADD25C,1.066998*%
%ADD26C,1.066998*%
G04~CAMADD=27~4~0.0~0.0~420.1~420.1~0.0~123.0~0~0.0~0.0~0.0~0.0~0~0.0~0.0~0.0~0.0~0~0.0~0.0~0.0~135.0~420.1~420.1*
%ADD27D27*%
G04~CAMADD=28~4~0.0~0.0~420.1~420.1~0.0~123.0~0~0.0~0.0~0.0~0.0~0~0.0~0.0~0.0~0.0~0~0.0~0.0~0.0~225.0~420.1~420.1*
%ADD28D28*%
%ADD29C,1.299997*%
%ADD30C,1.099998*%
%ADD31R,1.099998X1.099998*%
%ADD32R,1.499997X1.499997*%
%ADD33C,1.499997*%
%ADD34C,1.269997*%
%LNopengrab_ctrl-1*%
%LPD*%
G36*
X0124499Y0050249D02*
X0100499D01*
Y0068999*
X0101687*
X0101875Y0068811*
Y0068392*
X0101746Y0068305*
X0101657Y0068173*
X0101626Y0068017*
Y0067617*
X0101657Y0067461*
X0101746Y0067329*
X0101878Y006724*
X0101746Y0067056*
X0101657Y0066923*
X0101627Y006677*
X0102235*
Y0066567*
X0102437*
Y006596*
X0102566Y0065985*
X0102814Y0065808*
X0102802Y0065899*
X0102828Y0066102*
X0103644*
Y0065696*
X0102829*
X010283Y0065681*
X0102915Y0065478*
X0102965Y0065412*
X0102831Y0065138*
X0102105*
X0101977Y0065113*
X0101869Y0065041*
X0101163Y0064335*
X0101092Y0064227*
X0101066Y0064099*
Y0057599*
X0101092Y0057471*
X0101163Y0057363*
X0101563Y0056963*
X0101671Y0056891*
X0101799Y0056866*
X0103399*
X0103527Y0056891*
X0103635Y0056963*
X0104035Y0057363*
X0104107Y0057471*
X0104132Y0057599*
Y0057603*
X0104169Y0057618*
X0104322Y0057736*
X010444Y0057889*
X0104514Y0058068*
X0104539Y0058259*
X0104514Y005845*
X010444Y0058629*
X0104322Y0058782*
Y0059006*
X010444Y0059159*
X0104455Y0059196*
X0104829*
X0104957Y0059221*
X0105065Y0059293*
X0105645Y0059873*
X0105717Y0059981*
X0105742Y0060109*
Y0063027*
X0105996Y0063196*
X0106072Y0063165*
Y0057078*
X0106011Y0057037*
X0105924Y0056908*
X0105749*
X0105612Y0056881*
X0105495Y0056803*
X0105031Y0056339*
X0104894Y0056476*
X0104161*
X010394Y0056255*
X0103781Y0056266*
X0103627Y0056383*
X0103449Y0056457*
X0103258Y0056483*
X0103066Y0056457*
X0102888Y0056383*
X0102734Y0056266*
X0102617Y0056113*
X0102543Y0055934*
X0102518Y0055743*
X0102543Y0055551*
X0102617Y0055373*
X0102734Y005522*
X0102888Y0055102*
X0102898Y0055098*
Y005474*
X0102926Y0054603*
X0103003Y0054486*
X0103477Y0054013*
X010378Y005356*
X0103606Y00533*
X010345Y0053331*
X010305*
X0102894Y00533*
X0102762Y0053213*
X0102745Y0053187*
X0102366*
X0102189Y0053364*
Y0053439*
X0102322Y005354*
X0102455Y0053715*
X010254Y0053918*
X0102568Y0054136*
X010254Y0054354*
X0102455Y0054557*
X0102322Y0054732*
X0102147Y0054865*
X0101944Y005495*
X0101727Y0054978*
X0101508Y005495*
X0101305Y0054865*
X010113Y0054732*
X0100997Y0054557*
X0100912Y0054354*
X0100884Y0054136*
X0100912Y0053918*
X0100997Y0053715*
X010113Y005354*
X0101263Y0053439*
Y0053172*
X0101298Y0052995*
X0101399Y0052845*
X0101847Y0052396*
X0101997Y0052296*
X0102174Y0052261*
X0102745*
X0102762Y0052235*
X0102894Y0052147*
X010305Y0052116*
X010345*
X0103606Y0052147*
X0103723Y0052225*
X0104028*
X0104144Y0052147*
X01043Y0052116*
X01047*
X0104856Y0052147*
X0104989Y0052235*
X0105077Y0052368*
X0105108Y0052524*
Y0052924*
X0105077Y005308*
X0104989Y0053213*
X010486Y0053298*
Y0053498*
X0104832Y0053635*
X0104754Y0053752*
X0103617Y0054889*
Y0055098*
X0103627Y0055102*
X0103781Y005522*
X010394Y005523*
X0104161Y0055009*
X0104894*
X0105261Y0055376*
Y0055409*
X010527Y0055415*
X010537Y0055566*
X0105394Y0055686*
X0105777Y0056068*
X0106011Y0056061*
X0106143Y0055972*
X0106011Y0055787*
X0105922Y0055655*
X0105892Y0055502*
X0107106*
X0107076Y0055655*
X0106987Y0055787*
X0106948Y0055843*
X0106987Y0056061*
X0107076Y0056193*
X0107107Y0056349*
Y0056749*
X0107076Y0056905*
X0106987Y0057037*
X0106855Y0057126*
X0106738Y005715*
Y0058502*
X010703Y0058591*
X0107061Y0058547*
X0107848Y0057758*
Y0057089*
X0107719Y0057002*
X010763Y005687*
X0107599Y0056714*
Y0056314*
X010763Y0056158*
X0107719Y0056026*
X0107851Y0055937*
X0107719Y0055753*
X010763Y005562*
X0107599Y0055464*
Y0055064*
X010763Y0054908*
X0107719Y0054776*
X0107851Y0054687*
X0107896Y0054678*
X0107899Y0054663*
X0107971Y0054555*
X0109326Y0053201*
X0109431Y0052948*
X010942Y0052783*
X0109281Y0052677*
X0109129Y0052478*
X0109033Y0052247*
X0109001Y0051999*
X0109033Y0051751*
X0109129Y005152*
X0109281Y0051321*
X010948Y0051169*
X0109711Y0051073*
X0109959Y0051041*
X0110207Y0051073*
X0110438Y0051169*
X0110637Y0051321*
X0110789Y005152*
X0110885Y0051751*
X0110917Y0051999*
X0110885Y0052247*
X0110789Y0052478*
X0110637Y0052677*
X0110438Y0052829*
X0110292Y0052889*
Y0053039*
X0110267Y0053167*
X0110243Y0053203*
X0110195Y0053275*
X0108696Y0054774*
X0108695*
Y0054776*
X0108784Y0054908*
X0108815Y0055064*
Y0055464*
X0108784Y005562*
X0108695Y0055753*
X0108656Y0055808*
X0108695Y0056026*
X0108784Y0056158*
X0108815Y0056314*
Y0056714*
X0108784Y005687*
X0108695Y0057002*
X0108566Y0057089*
Y0057907*
X0108539Y0058045*
X0108461Y0058161*
X0107647Y0058975*
Y0059572*
X0107936Y005967*
X0107988Y0059601*
X0108163Y0059468*
X0108366Y0059383*
X0108585Y0059355*
X0108802Y0059383*
X0109005Y0059468*
X010918Y0059601*
X0109313Y0059776*
X0109398Y0059979*
X0109408Y0060059*
X0109463Y0060101*
X0109692Y0060196*
X0109814Y0060103*
X0110017Y0060018*
X0110236Y005999*
X0110453Y0060018*
X0110541Y0060055*
X0110888Y0059707*
X0110996Y0059635*
X0111125Y005961*
X011176*
X0111887Y0059635*
X0111995Y0059707*
X011242Y0060132*
X0112492Y006024*
X0112517Y0060368*
X0112547Y0060528*
X0112684Y0060501*
X0112821Y0060528*
X0112934Y0060604*
X0113047Y0060528*
X0113184Y0060501*
X0113321Y0060528*
X0113434Y0060604*
X0113547Y0060528*
X0113684Y0060501*
X0113851Y0060512*
Y0060093*
X0113653Y0059895*
X0112903*
X0112774Y005987*
X0112666Y0059798*
X01124Y0059531*
X0112327Y0059423*
X0112302Y0059295*
Y0058873*
X0112279Y0058869*
X0112147Y005878*
X0111929Y0058741*
X0111874Y005878*
X0111741Y0058869*
X0111589Y0058899*
Y0058293*
Y0057685*
X0111585Y0057684*
X011151*
X0111625Y0057483*
X0111644Y005739*
X0111451Y0057059*
X0111379Y0056951*
X0111354Y0056823*
Y0056771*
X0110637*
Y0053971*
X0112737*
Y0056771*
X0112505*
X0112388Y0057053*
X0112871Y0057536*
X0112943Y0057644*
X0112956Y0057708*
X0112991Y0057715*
X0113124Y0057804*
X0113212Y0057936*
X0113243Y0058092*
Y0058492*
X0113212Y0058648*
X0113124Y005878*
X0112991Y0058869*
X0112969Y0058873*
Y0059157*
X011304Y0059229*
X0113792*
X0113859Y0058889*
X0113836Y0058869*
X0113704Y005878*
X0113615Y0058648*
X0113584Y0058492*
Y0058092*
X0113615Y0057936*
X0113704Y0057804*
X0113836Y0057715*
X0113928Y0057697*
X0113956Y0057655*
X011419Y0057421*
X0114298Y0057349*
X0114427Y0057324*
X0114796*
X0115054Y0057066*
Y0056771*
X0114337*
Y0053971*
X0116437*
Y0055897*
X011674Y0055927*
X011677Y0055777*
X0116859Y0055645*
X0116991Y0055556*
X0117147Y0055525*
X0117547*
X0117703Y0055556*
X011782Y0055634*
X0118124*
X0118241Y0055556*
X0118397Y0055525*
X0118797*
X0118953Y0055556*
X0119085Y0055645*
X0119102Y005567*
X0119407Y005568*
X0119418Y0055664*
X0119593Y0055531*
X0119796Y0055446*
X0120015Y0055418*
X0120232Y0055446*
X0120435Y0055531*
X012061Y0055664*
X0120662Y0055732*
X0120959Y0055663*
X0120961Y005565*
X012105Y0055518*
X0121182Y0055429*
X012105Y0055245*
X0120961Y0055112*
X0120957Y0055089*
X0120756*
X0120628Y0055064*
X0120565Y0055022*
X0120467Y0055063*
X0120452Y0055064*
Y0054249*
Y0053434*
X0120467Y0053435*
X012067Y005352*
X0120845Y0053653*
X0120978Y0053828*
X0121063Y0054031*
X0121182Y0054179*
X0121335Y0054149*
Y0054756*
X0121539*
Y0054959*
X0122145*
X0122115Y0055112*
X0122026Y0055245*
X0121987Y00553*
X0122026Y0055518*
X0122115Y005565*
X0122146Y0055806*
Y0056206*
X0122115Y0056362*
X0122026Y0056494*
X0121894Y0056583*
X0121871Y0056587*
Y0057046*
X0122438*
Y0058547*
Y0060046*
X0121724*
Y0060632*
X0121747Y0060636*
X0121879Y0060725*
X0121968Y0060857*
X0121999Y0061013*
Y0061413*
X0121993Y0061441*
X0122202Y0061663*
X0122047Y0061683*
Y0062499*
Y0063314*
X0122031Y0063313*
X0122026Y0063311*
X0121773Y006348*
Y0063446*
X0121772Y0063443*
X0121165*
Y0063849*
X0121772*
X0121742Y0064002*
X0121653Y0064135*
X0121614Y006419*
X0121653Y0064408*
X0121742Y006454*
X0121773Y0064696*
Y0065096*
X0121742Y0065252*
X0121741Y0065253*
X0121963Y0065462*
X0122137Y0065329*
X012234Y0065244*
X0122355Y0065243*
Y0066058*
X0122558*
Y0066261*
X0123373*
X0123372Y0066276*
X0123336Y0066363*
Y0068999*
X0124499*
Y0050249*
G37*
%LNopengrab_ctrl-2*%
%LPC*%
G36*
X0107315Y0053996D02*
X0106702D01*
Y0053384*
X0106717Y0053385*
X010692Y005347*
X0107095Y0053603*
X0107228Y0053778*
X0107313Y0053981*
X0107315Y0053996*
G37*
G36*
X0106296D02*
X0105684D01*
X0105685Y0053981*
X010577Y0053778*
X0105903Y0053603*
X0106078Y005347*
X0106281Y0053385*
X0106296Y0053384*
Y0053996*
G37*
G36*
X0120046Y0054046D02*
X0119434D01*
X0119435Y0054031*
X011952Y0053828*
X0119653Y0053653*
X0119828Y005352*
X0120031Y0053435*
X0120046Y0053434*
Y0054046*
G37*
G36*
X0122145Y0054553D02*
X0121741D01*
Y0054149*
X0121894Y0054179*
X0122026Y0054268*
X0122115Y00544*
X0122145Y0054553*
G37*
G36*
X0112499Y0052957D02*
X0112251Y0052925D01*
X011202Y0052829*
X0111821Y0052677*
X0111669Y0052478*
X0111573Y0052247*
X0111541Y0051999*
X0111573Y0051751*
X0111669Y005152*
X0111821Y0051321*
X011202Y0051169*
X0112251Y0051073*
X0112499Y0051041*
X0112747Y0051073*
X0112978Y0051169*
X0113177Y0051321*
X0113329Y005152*
X0113425Y0051751*
X0113457Y0051999*
X0113425Y0052247*
X0113329Y0052478*
X0113177Y0052677*
X0112978Y0052829*
X0112747Y0052925*
X0112499Y0052957*
G37*
G36*
X0107419D02*
X0107171Y0052925D01*
X010694Y0052829*
X0106741Y0052677*
X0106589Y0052478*
X0106493Y0052247*
X0106461Y0051999*
X0106493Y0051751*
X0106589Y005152*
X0106741Y0051321*
X010694Y0051169*
X0107171Y0051073*
X0107419Y0051041*
X0107667Y0051073*
X0107898Y0051169*
X0108097Y0051321*
X0108249Y005152*
X0108345Y0051751*
X0108377Y0051999*
X0108345Y0052247*
X0108249Y0052478*
X0108097Y0052677*
X0107898Y0052829*
X0107667Y0052925*
X0107419Y0052957*
G37*
G36*
X0118529Y0052949D02*
X0116629D01*
Y0051049*
X0118529*
Y0052949*
G37*
G36*
X0115039Y0052957D02*
X0114791Y0052925D01*
X011456Y0052829*
X0114361Y0052677*
X0114209Y0052478*
X0114113Y0052247*
X0114081Y0051999*
X0114113Y0051751*
X0114209Y005152*
X0114361Y0051321*
X011456Y0051169*
X0114791Y0051073*
X0115039Y0051041*
X0115287Y0051073*
X0115518Y0051169*
X0115717Y0051321*
X0115869Y005152*
X0115965Y0051751*
X0115997Y0051999*
X0115965Y0052247*
X0115869Y0052478*
X0115717Y0052677*
X0115518Y0052829*
X0115287Y0052925*
X0115039Y0052957*
G37*
G36*
X0107106Y0055096D02*
X0105892D01*
X0105922Y0054943*
X0105971Y0054869*
Y0054847*
X0105903Y0054795*
X010577Y005462*
X0105685Y0054417*
X0105684Y0054402*
X0107315*
X0107313Y0054417*
X0107228Y005462*
X0107095Y0054795*
X0107027Y0054847*
Y0054869*
X0107076Y0054943*
X0107106Y0055096*
G37*
G36*
X0122452Y0063314D02*
Y0062702D01*
X0123064*
X0123063Y0062717*
X0122978Y006292*
X0122845Y0063095*
X012267Y0063228*
X0122467Y0063313*
X0122452Y0063314*
G37*
G36*
X0123064Y0062296D02*
X0122452D01*
Y0061684*
X0122467Y0061685*
X012267Y006177*
X0122845Y0061903*
X0122978Y0062078*
X0123063Y0062281*
X0123064Y0062296*
G37*
G36*
X0102031Y0066364D02*
X0101627D01*
X0101657Y0066211*
X0101746Y0066079*
X0101878Y006599*
X0102031Y006596*
Y0066364*
G37*
G36*
X0123373Y0065855D02*
X0122761D01*
Y0065243*
X0122776Y0065244*
X0122979Y0065329*
X0123154Y0065462*
X0123287Y0065637*
X0123372Y006584*
X0123373Y0065855*
G37*
G36*
X0109796Y0058046D02*
X0109184D01*
X0109185Y0058031*
X010927Y0057828*
X0109403Y0057653*
X0109578Y005752*
X0109781Y0057435*
X0109796Y0057434*
Y0058046*
G37*
G36*
X0120046Y0055064D02*
X0120031Y0055063D01*
X0119828Y0054978*
X0119653Y0054845*
X011952Y005467*
X0119435Y0054467*
X0119434Y0054452*
X0120046*
Y0055064*
G37*
G36*
X0109796Y0059064D02*
X0109781Y0059063D01*
X0109578Y0058978*
X0109403Y0058845*
X010927Y005867*
X0109185Y0058467*
X0109184Y0058452*
X0109796*
Y0059064*
G37*
G36*
X0110202D02*
Y0058249D01*
Y0057434*
X0110217Y0057435*
X011042Y005752*
X0110595Y0057653*
X0110728Y0057828*
X0110897Y0057804*
X0111029Y0057715*
X0111182Y0057685*
Y0058293*
Y0058899*
X0111029Y0058869*
X0110897Y005878*
X0110728Y005867*
X0110595Y0058845*
X011042Y0058978*
X0110217Y0059063*
X0110202Y0059064*
G37*
%LNopengrab_ctrl-3*%
%LPD*%
G54D10*
X0121158Y0070458D03*
Y0071708D03*
X0119634D03*
Y0070458D03*
X0121666Y0067183D03*
Y0068432D03*
X0121165Y0064897D03*
Y0063646D03*
X0119507Y0057912D03*
Y0059161D03*
X0121539Y0056007D03*
Y0054756D03*
X0102235Y0067818D03*
Y0066567D03*
X0108585Y0063119D03*
Y0061868D03*
X0108207Y0056515D03*
Y0055264D03*
X0106499Y0055299D03*
Y0056549D03*
G54D11*
X0105283Y0079121D03*
X0104032D03*
X0109601Y0075946D03*
X011085D03*
X0120142Y0061214D03*
X0121391D03*
X0111385Y0058293D03*
X0112635D03*
X0115443D03*
X0114192D03*
X0117348Y0056134D03*
X0118597D03*
X0105664Y006858D03*
X0104413D03*
X01045Y0052724D03*
X0103251D03*
X011176Y0072009D03*
X0110509D03*
G54D12*
X0111399Y0084399D03*
Y0081899D03*
G54D13*
X0112184Y0061558D03*
X0112684D03*
X0113184D03*
X0113684D03*
X0114184D03*
X0114684D03*
X0115184D03*
X0115684D03*
X0116184D03*
X0116684D03*
X0117184D03*
X0117684D03*
Y0069758D03*
X0117184D03*
X0116684D03*
X0116184D03*
X0115684D03*
X0115184D03*
X0114684D03*
X0114184D03*
X0113684D03*
X0113184D03*
X0112684D03*
X0112184D03*
G54D14*
X0119034Y0062908D03*
Y0063408D03*
Y0063908D03*
Y0064408D03*
Y0064908D03*
Y0065408D03*
Y0065908D03*
Y0066408D03*
Y0066908D03*
Y0067408D03*
Y0067908D03*
Y0068408D03*
X0110834D03*
Y0067908D03*
Y0067408D03*
Y0066908D03*
Y0066408D03*
Y0065908D03*
Y0065408D03*
Y0064908D03*
Y0064408D03*
Y0063908D03*
Y0063408D03*
Y0062908D03*
G54D15*
X0107333Y0079121D03*
X0106533D03*
G54D16*
X0121539Y0057796D03*
Y0059296D03*
G54D17*
X0115387Y0055372D03*
X0111687D03*
G54D18*
X0102743Y0071005D03*
X0104013D03*
X0105283D03*
X0106553D03*
X0102743Y0075805D03*
X0104013D03*
X0105283D03*
X0106553D03*
G54D19*
X0116199Y0073099D02*
X0118957D01*
X0115184Y0072084D02*
X0116199Y0073099D01*
X0115184Y0069758D02*
Y0072084D01*
X0118957Y0073099D02*
X0120269Y007441D01*
X0120599Y0072499D02*
X0121539Y0073438D01*
X0116822Y0072499D02*
X0120599D01*
X0115697Y0071374D02*
X0116822Y0072499D01*
X011894Y0070458D02*
X0119634D01*
X0117999Y0071399D02*
X011894Y0070458D01*
X0117499Y0071399D02*
X0117999D01*
X0117184Y0071084D02*
X0117499Y0071399D01*
X011632Y007441D02*
X0117729D01*
X0121539Y0073438D02*
Y0076338D01*
X010541Y0060109D02*
Y0063373D01*
X0104829Y0059529D02*
X010541Y0060109D01*
X0103799Y0059529D02*
X0104829D01*
X0102105Y0064805D02*
X0105699D01*
X0101399Y0064099D02*
X0102105Y0064805D01*
X0101399Y0057599D02*
Y0064099D01*
Y0057599D02*
X0101799Y0057199D01*
X0103399*
X0103799Y0057599*
Y0058259*
X0119034Y0068408D02*
X0121666D01*
X0106206Y0056549D02*
X0106405Y0056748D01*
X0115697Y0069758D02*
Y0071374D01*
X0112499Y0087999D02*
X0122799D01*
X0123899Y0086899*
Y0078699D02*
Y0086899D01*
X0122866Y0077665D02*
X0123899Y0078699D01*
X0121539Y0076338D02*
X0122866Y0077665D01*
X0114184Y0069758D02*
Y0073414D01*
X0111653Y0075946D02*
X0114184Y0073414D01*
X011085Y0075946D02*
X0111653D01*
X0109959Y0051999D02*
Y0053039D01*
X0108207Y0054791D02*
X0109959Y0053039D01*
X0108207Y0054791D02*
Y0055264D01*
X0109959Y0051499D02*
Y0051999D01*
X0116194Y0059055D02*
X0116444D01*
X0115184Y0060064D02*
X0116194Y0059055D01*
X0115184Y0060064D02*
Y0061558D01*
X0116436Y0059563D02*
X0116713D01*
X0115684Y0060314D02*
X0116436Y0059563D01*
X0115684Y0060314D02*
Y0061558D01*
X0108088Y0064908D02*
X0110834D01*
X0110109Y0073152D02*
X0112141D01*
X0113184Y0072107*
X0109982Y0074041D02*
X0112141D01*
X0113684Y0072496*
X0121391Y0059173D02*
Y0061214D01*
Y0059173D02*
X0121403Y0059161D01*
X0121539Y0059296*
X0119507Y0059161D02*
X0121403D01*
X0121423Y0057912D02*
X0121539Y0057796D01*
X0119507Y0057912D02*
X0121423D01*
X0118364D02*
X0119507D01*
X0118637Y0059161D02*
X0119507D01*
X0116586Y0060071D02*
X0117729D01*
X0118637Y0059161*
X0116184Y0060471D02*
X0116586Y0060071D01*
X0116713Y0059563D02*
X0118364Y0057912D01*
X0116184Y0060471D02*
Y0061558D01*
X0113792Y0059563D02*
X0114184Y0059955D01*
X0114684Y0059693D02*
Y0060201D01*
X0119034Y0067908D02*
X012005D01*
X0109509Y0063408D02*
X0110834D01*
X010922Y0063119D02*
X0109509Y0063408D01*
X0108585Y0063119D02*
X010922D01*
X0108585Y0061868D02*
X0109239D01*
X0109474Y0062103*
Y0062484*
X0109898Y0062908*
X0110834*
X0111687Y0056823D02*
X0112635Y0057771D01*
X0111687Y0055626D02*
Y0056823D01*
X0114192Y0057891D02*
Y0059201D01*
Y0057891D02*
X0114427Y0057658D01*
X0114935*
X0115387Y0057204*
Y0055626D02*
Y0057204D01*
X0114184Y0059955D02*
Y0061558D01*
X0112903Y0059563D02*
X0113792D01*
X0114192Y0059201D02*
X0114684Y0059693D01*
X0112635Y0057771D02*
Y0059295D01*
X0112903Y0059563*
X0114684Y0060201D02*
Y0061558D01*
X0110509Y0071353D02*
Y0072009D01*
Y0071353D02*
X0110744Y007112D01*
X0112014*
X0112184Y0070948*
Y0069758D02*
Y0070948D01*
X011176Y0072009D02*
X0112395D01*
X0112684Y0071718*
Y0069758D02*
Y0071718D01*
X0113184Y0069758D02*
Y0072107D01*
X0113684Y0069758D02*
Y0072496D01*
X0108839Y0072898D02*
X0109982Y0074041D01*
X0109601Y0072644D02*
X0110109Y0073152D01*
X0108839Y0069469D02*
Y0072898D01*
X0109601Y0069342D02*
Y0072644D01*
X0109556Y0068408D02*
X0110834D01*
X0119034Y0066408D02*
X0120788D01*
X0121165Y0066031*
X012005Y0067908D02*
X0120777Y0067183D01*
X0121666*
X0117184Y0069758D02*
Y0071084D01*
X0102743Y0068707D02*
Y0071005D01*
Y0068707D02*
X0103251Y0068199D01*
X0121539Y0056007D02*
Y0057796D01*
Y0056007D02*
D01*
X0118999Y0061214D02*
X0120142D01*
X0106405Y0056748D02*
Y0063225D01*
X0108088Y0064908*
X0108604Y0064408D02*
X0110834D01*
X0107315Y0063119D02*
X0108604Y0064408D01*
X0107315Y0058801D02*
Y0063119D01*
X0112184Y0060368D02*
Y0061558D01*
X011176Y0059944D02*
X0112184Y0060368D01*
X0111125Y0059944D02*
X011176D01*
X0110236Y0060833D02*
X0111125Y0059944D01*
X0108585Y0060198D02*
Y0061868D01*
X0105699Y0064805D02*
X0108204Y006731D01*
Y0067945D02*
X0109601Y0069342D01*
X0108204Y006731D02*
Y0067945D01*
X010541Y0063373D02*
X010922Y0067183D01*
Y0068072*
X0109556Y0068408*
X0106426Y0066294D02*
X0107251Y0067118D01*
Y0067881D02*
X0108839Y0069469D01*
X0107251Y0067118D02*
Y0067881D01*
X0103251Y0067818D02*
Y0068199D01*
Y0067818D02*
X0104775Y0066294D01*
X0106426*
X0112184Y0068154D02*
Y0069758D01*
X0112903Y0067183D02*
Y0067437D01*
X0112184Y0068154D02*
X0112903Y0067437D01*
X0112684Y0068797D02*
Y0069758D01*
Y0068797D02*
X0113284Y0068199D01*
X0114046*
X01143Y0067945*
Y0064499D02*
Y0067945D01*
X0118597Y0056134D02*
X0119888D01*
X0120015Y0056261*
X0114684Y0069758D02*
Y0072774D01*
X011632Y007441*
X0116922Y0068408D02*
X0119034D01*
X0116078Y0067564D02*
X0116922Y0068408D01*
X0115443Y0067564D02*
X0116078D01*
X0117692Y0067908D02*
X0119034D01*
X0116967Y0067183D02*
X0117692Y0067908D01*
X0116967Y0065499D02*
Y0067183D01*
X0115443Y0058293D02*
X011557D01*
X0116332Y0057531*
X0116444Y0059055D02*
X0117348Y0058151D01*
Y0056134D02*
Y0058151D01*
X0110834Y0063408D02*
X0112908D01*
X0120756Y0054756D02*
X0121539D01*
X0120249Y0054249D02*
X0120756Y0054756D01*
X0110042Y0058293D02*
X0111385D01*
X0109999Y0058249D02*
X0110042Y0058293D01*
X0121165Y0064897D02*
Y0066031D01*
G54D20*
X0102976Y0066567D02*
X0103644Y0065899D01*
X01045Y0052724D02*
Y0053498D01*
X0103258Y005474D02*
X01045Y0053498D01*
X0103258Y005474D02*
Y0055743D01*
X0106206Y0056549D02*
X0106499D01*
X0105749D02*
X0106206D01*
X0104943Y0055743D02*
X0105749Y0056549D01*
X0107333Y0079121D02*
Y0080033D01*
X0107634Y0080334*
Y0081099*
X0105283Y0079121D02*
X0106533D01*
X0105156D02*
X0105283D01*
X0106499Y0079154D02*
X0106533Y0079121D01*
X0106499Y0079154D02*
Y0079999D01*
X0106364Y0080134D02*
X0106499Y0079999D01*
X0106364Y0080134D02*
Y0081099D01*
X0113999Y0076599D02*
X0115599D01*
X0108411Y0082187D02*
X0113999Y0076599D01*
X0105087Y0082187D02*
X0108411D01*
X0104013Y0081112D02*
X0105087Y0082187D01*
X0104013Y0079013D02*
Y0081112D01*
X0122499Y0079699D02*
Y0085899D01*
X0103905Y0079121D02*
X0104013Y0079013D01*
X0120499Y0079699D02*
Y0085899D01*
X0115599Y0076599D02*
X0117299Y0078299D01*
X0119999*
X0122499Y0078799D02*
Y0079699D01*
X0121099Y0077399D02*
X0122499Y0078799D01*
X0117399Y0077399D02*
X0121099D01*
X0115899Y0075899D02*
X0117399Y0077399D01*
X0112799Y0075899D02*
X0115899D01*
X0111699Y0076999D02*
X0112799Y0075899D01*
X0110578Y0076999D02*
X0111699D01*
X0120499Y0078799D02*
Y0079699D01*
X0119999Y0078299D02*
X0120499Y0078799D01*
X0107315Y0058801D02*
X0108207Y0057907D01*
Y0056515D02*
Y0057907D01*
X0109601Y0075311D02*
Y0075946D01*
X0106553Y0069469D02*
X0106807Y0069215D01*
X0106553Y0069469D02*
Y0071005D01*
X0102235Y0067818D02*
Y0068961D01*
X0104413Y006858D02*
Y0069067D01*
X0104013Y0069469D02*
X0104413Y0069067D01*
X0104013Y0069469D02*
Y0071005D01*
X0105664Y006858D02*
Y0069088D01*
X0105283Y0069469D02*
X0105664Y0069088D01*
X0105283Y0069469D02*
Y0071005D01*
X0108077Y0073787D02*
X0109601Y0075311D01*
X0119634Y0071708D02*
X0121158D01*
X0104013Y0075805D02*
Y0079013D01*
X0105283Y0075805D02*
Y0077597D01*
X0105664Y0077978*
X0106934*
X0107333Y0078377*
Y0079121*
X0108458*
X0110578Y0076999*
X0102235Y0066567D02*
X0102976D01*
X0102743Y0074549D02*
Y0075805D01*
X0105664Y0067371D02*
Y006858D01*
X0106807Y0069215D02*
X0107188D01*
X0108077Y0070104*
Y0073787*
X0101219Y0069977D02*
X0102235Y0068961D01*
X0101219Y0069977D02*
Y0073025D01*
X0102743Y0074549*
Y0073025D02*
X0103632D01*
X0104013Y0072644*
Y0071005D02*
Y0072644D01*
X0105664Y006731D02*
Y0067371D01*
X0121165Y0062833D02*
Y0063646D01*
Y0062833D02*
X0121499Y0062499D01*
X0122249*
G54D21*
X0122809Y0066058D02*
Y007441D01*
X0106499Y0054199D02*
Y0055299D01*
X0116499Y0082699D02*
Y0085899D01*
X0115699Y0081899D02*
X0116499Y0082699D01*
Y0079699D02*
Y0081099D01*
X0115699Y0081899D02*
X0116499Y0081099D01*
X0111399Y0081899D02*
X0115699D01*
X0111399Y0084399D02*
Y0085199D01*
X0110899Y0085699D02*
X0111399Y0085199D01*
X0110019Y0085699D02*
X0110899D01*
X0109359Y008636D02*
X0110019Y0085699D01*
X0109959Y0087999D02*
Y0088499D01*
Y0086959D02*
Y0087999D01*
X0109359Y008636D02*
X0109959Y0086959D01*
X0102997Y008636D02*
X0109359D01*
X0101749Y0080249D02*
Y0081249D01*
X0102301Y0081801*
Y0085664*
X0102997Y008636*
X0121158Y0070458D02*
X0122799D01*
X0122558Y0066058D02*
X0122809D01*
G54D22*
X0104528Y0055743D02*
X0104943D01*
X0101727Y0053172D02*
Y0054136D01*
Y0053172D02*
X0102174Y0052724D01*
X0103251*
G54D23*
X0114999Y0064499D03*
G54D24*
X0099999Y0089999D02*
X0124999D01*
Y0049999D02*
Y0089999D01*
X0099999Y0049999D02*
X0124999D01*
X0099999D02*
Y0089999D01*
G54D25*
X0102529Y0063339D03*
Y0062069D03*
X0103799Y0060799D03*
Y0062069D03*
Y0063339D03*
G54D26*
X0102529Y0060799D03*
Y0059529D03*
X0103799D03*
Y0058259D03*
X0103258Y0055743D03*
X0107634Y0081199D03*
G54D27*
X0102529Y0058259D03*
G54D28*
X0104528Y0055743D03*
X0106364Y0081199D03*
G54D29*
X0114999Y0084199D03*
Y0077999D03*
G54D30*
X0122499Y0085899D03*
X0120499D03*
X0118499D03*
Y0079699D03*
X0120499D03*
X0122499D03*
G54D31*
X0116499Y0085899D03*
Y0079699D03*
G54D32*
X0122809Y007441D03*
X0107419Y0087999D03*
X0117579Y0051999D03*
G54D33*
X0120269Y007441D03*
X0117729D03*
X0109959Y0087999D03*
X0112499D03*
X0107419Y0051999D03*
X0109959D03*
X0112499D03*
X0115039D03*
G54D34*
X0103644Y0065899D03*
X0106499Y0054199D03*
X0101727Y0054136D03*
X0101749Y0080249D03*
X0118999Y0061214D03*
X0110236Y0060833D03*
X0108585Y0060198D03*
X0105664Y0067371D03*
X0112903Y0067183D03*
X0102743Y0073025D03*
X0120015Y0056261D03*
X0115443Y0067564D03*
X0116332Y0057531D03*
X0115999Y0063999D03*
X0120249Y0054249D03*
X0122249Y0062499D03*
X0109999Y0058249D03*
X0122558Y0066058D03*
M02*